<svg xmlns="http://www.w3.org/2000/svg" width="1648" height="928" viewBox="0 0 1648 928"><title>ThatDeveloperGuy — IT Services — rive-import — plant_server_corner_foliage_left</title><g id="plant_server_corner_foliage_left"><path id="plant_server_corner_foliage_left__p04173" fill="#56b68d" d="M1316.7 437.7C1316.7 437.7 1318.7 441.3 1318.7 441.3C1318.7 441.3 1319.7 439.3 1319.7 439.3C1319.7 439.3 1321.3 440.3 1321.3 440.3C1321.3 440.3 1320.3 437.7 1320.3 437.7C1320.3 437.7 1316.7 437.7 1316.7 437.7Z"/><path id="plant_server_corner_foliage_left__p04176" fill="#2e9948" d="M1289.7 491.7C1294.1 492.8 1297.4 494 1301.3 496.3C1300 495 1300.3 494.5 1300.3 492.7C1300.3 492.7 1301.3 492.3 1301.3 492.3C1299.8 489.9 1291.8 489.6 1289.7 491.7ZM1314.7 478.7C1316 480.8 1315.1 480.3 1317.3 480.3C1316 478.2 1316.9 478.7 1314.7 478.7ZM1286.7 466.7C1288 470.1 1289.5 469.4 1292.3 471.3C1294.6 472.8 1296.5 475.5 1298.5 477.5C1302.1 481.1 1297.8 476.2 1299.7 480.3C1301.5 484.3 1309.4 490.8 1313.3 492.3C1313.3 492.3 1312.3 491.3 1312.3 491.3C1315.9 481.8 1300.3 479.1 1300.3 471.7C1300.3 471.7 1301.3 471.3 1301.3 471.3C1301.3 471.3 1305.7 475.3 1305.7 475.3C1305.7 475.3 1308.3 474.3 1308.3 474.3C1304.3 467.8 1293.5 467.3 1286.7 466.7ZM1287.7 441.7C1287.7 441.7 1292.3 448.3 1292.3 448.3C1292.3 448.3 1293.3 443.7 1293.3 443.7C1293.3 443.7 1287.7 441.7 1287.7 441.7ZM1290.7 439.7C1290.7 439.7 1294.3 441.3 1294.3 441.3C1293 439.3 1292.9 439.7 1290.7 439.7ZM1308.7 437.7C1308.7 437.7 1314.7 455.3 1314.7 455.3C1314.7 455.3 1320.3 456.3 1320.3 456.3C1319.8 452.1 1319.5 449 1317.3 445.3C1317.3 445.3 1318.7 443.3 1318.7 443.3C1321.2 444.3 1322 452.6 1322.7 455.3C1322.7 455.3 1325.3 455.3 1325.3 455.3C1325.3 453 1325.8 449.9 1325.3 447.7C1324.6 444.6 1322.3 443.2 1322.3 439.7C1322.3 439.7 1321.3 440.7 1321.3 440.7C1321.3 440.7 1319.7 439.7 1319.7 439.7C1319.7 439.7 1319.3 441.7 1319.3 441.7C1319.3 441.7 1318.3 440.7 1318.3 440.7C1318.3 440.7 1316.7 441.7 1316.7 441.7C1316.4 440.1 1316 440 1317.3 438.7C1317.3 438.7 1315.7 439.7 1315.7 439.7C1315.7 439.7 1315.3 437.7 1315.3 437.7C1315.3 437.7 1308.7 437.7 1308.7 437.7ZM1317.7 441.3C1317.7 441.3 1318.7 441.7 1318.7 441.7C1318.7 441.7 1318.3 443.7 1318.3 443.7C1318.3 443.7 1317.3 443.3 1317.3 443.3C1317.3 443.3 1317.7 441.3 1317.7 441.3Z"/><path id="plant_server_corner_foliage_left__p04177" fill="#5a7990" d="M1309.7 511.7C1309.7 511.7 1312.3 513.3 1312.3 513.3C1312.3 513.3 1312.3 511.7 1312.3 511.7C1312.3 511.7 1309.7 511.7 1309.7 511.7Z"/><path id="plant_server_corner_foliage_left__p04178" fill="#1d7d37" d="M1301.7 491.7C1301.7 491.7 1299.7 496.3 1299.7 496.3C1299.7 496.3 1301.3 495.3 1301.3 495.3C1301.8 497.8 1303.1 498.1 1305.3 499.3C1305.3 499.3 1306.3 497.7 1306.3 497.7C1306.3 497.7 1303.3 494.7 1303.3 494.7C1303.3 494.7 1305.3 494.3 1305.3 494.3C1305.3 494.3 1306.7 496.3 1306.7 496.3C1306.7 496.3 1308.3 495.7 1308.3 495.7C1308.3 495.7 1301.7 491.7 1301.7 491.7ZM1313.7 489.7C1313.7 489.7 1311.7 492.3 1311.7 492.3C1311.7 492.3 1313.3 491.3 1313.3 491.3C1313.7 493.5 1314.5 493.9 1316.3 495.3C1316.3 492 1316.3 491.7 1313.7 489.7ZM1292.7 489.7C1292.7 489.7 1292.7 490.3 1292.7 490.3C1292.7 490.3 1296.3 490.3 1296.3 490.3C1296.3 490.3 1296.3 489.7 1296.3 489.7C1296.3 489.7 1292.7 489.7 1292.7 489.7ZM1305.7 486.7C1305.7 486.7 1305.7 487.3 1305.7 487.3C1305.7 487.3 1306.3 487.3 1306.3 487.3C1306.3 487.3 1306.7 488.3 1306.7 488.3C1306.7 488.3 1307.3 488.3 1307.3 488.3C1307.3 488.3 1307.7 489.3 1307.7 489.3C1307.7 489.3 1308.3 489.3 1308.3 489.3C1308.3 489.3 1308.7 490.3 1308.7 490.3C1308.7 490.3 1309.3 490.3 1309.3 490.3C1309.3 490.3 1309.3 489.7 1309.3 489.7C1309.3 489.7 1308.7 489.7 1308.7 489.7C1308.7 489.7 1308.3 488.7 1308.3 488.7C1308.3 488.7 1307.7 488.7 1307.7 488.7C1307.7 488.7 1307.3 487.7 1307.3 487.7C1307.3 487.7 1306.7 487.7 1306.7 487.7C1306.7 487.7 1306.3 486.7 1306.3 486.7C1306.3 486.7 1305.7 486.7 1305.7 486.7ZM1300.7 471.7C1300.7 474.3 1303 475.6 1304.7 477.3C1304.7 477.3 1307.3 476.3 1307.3 476.3C1310.7 479.7 1313 483.5 1314.7 488.3C1314.7 488.3 1315.3 485.7 1315.3 485.7C1313.4 485 1313.6 481.6 1313.3 479.7C1313.3 479.7 1314.3 479.3 1314.3 479.3C1316.5 481.5 1315 481.7 1315.7 484.3C1316.1 485.6 1317.3 486.4 1317.7 487.7C1318.6 490.5 1317.8 492.4 1319.3 495.3C1319.3 492.5 1321.5 492.6 1322.3 490.3C1323.9 485.5 1322.2 478.7 1316.7 478.7C1316.7 478.7 1317.7 480.3 1317.7 480.3C1315.7 480.7 1316 481 1314.3 479.3C1314.3 479.3 1315.3 477.7 1315.3 477.7C1312.2 476.8 1311.3 476.2 1309.3 473.7C1309.3 473.7 1305.7 475.7 1305.7 475.7C1305.7 475.7 1300.7 471.7 1300.7 471.7ZM1304.3 475.7C1304.3 475.7 1305.3 475.3 1305.3 475.3C1305.3 475.3 1305.7 476.3 1305.7 476.3C1305.7 476.3 1304.7 476.7 1304.7 476.7C1304.7 476.7 1304.3 475.7 1304.3 475.7ZM1322.7 455.7C1322.7 455.7 1324.3 465.3 1324.3 465.3C1326.3 463.3 1325.3 458.5 1325.3 455.7C1325.3 455.7 1322.7 455.7 1322.7 455.7ZM1315.7 455.7C1317.1 459.7 1318.1 461.6 1321.3 464.3C1321.3 464.3 1321.3 457.7 1321.3 457.7C1321.3 457.7 1315.7 455.7 1315.7 455.7ZM1319.7 446.7C1319.7 446.7 1318.7 448.3 1318.7 448.3C1318.7 448.3 1320.7 449.7 1320.7 449.7C1320.7 449.7 1319.7 450.7 1319.7 450.7C1319.7 450.7 1320.3 452.3 1320.3 452.3C1320.3 452.3 1321.3 449.7 1321.3 449.7C1321.3 449.7 1319.3 448.3 1319.3 448.3C1319.3 448.3 1319.7 446.7 1319.7 446.7ZM1293.7 439.7C1294 440.9 1294.9 442.1 1294.7 443.3C1294.3 445.6 1291.3 447.1 1292.7 450.3C1293 451 1294.2 451 1294.7 451.7C1295.7 453 1295.7 455 1296.7 456.3C1297.8 457.8 1299.9 459.1 1301.3 460.3C1303.1 458 1303.4 457.3 1306.3 457.3C1306.3 453.3 1298.2 447.6 1295.3 444.7C1298 444.2 1298.7 445.6 1300.7 447.3C1302.2 445.8 1302.1 445.2 1304.3 445.7C1300.9 442.3 1296.9 442.9 1293.7 439.7ZM1304.3 455.7C1304.3 455.7 1305.3 455.3 1305.3 455.3C1305.3 455.3 1305.7 456.3 1305.7 456.3C1305.7 456.3 1304.7 456.7 1304.7 456.7C1304.7 456.7 1304.3 455.7 1304.3 455.7ZM1294.3 443.7C1294.3 443.7 1295.3 443.3 1295.3 443.3C1295.3 443.3 1295.7 444.3 1295.7 444.3C1295.7 444.3 1294.7 444.7 1294.7 444.7C1294.7 444.7 1294.3 443.7 1294.3 443.7ZM1315.7 437.7C1316.9 440.1 1319 442.6 1318.3 445.3C1318.3 445.3 1319.3 443.7 1319.3 443.7C1319.3 443.7 1315.7 437.7 1315.7 437.7Z"/><path id="plant_server_corner_foliage_left__p04181" fill="#0e5f2f" d="M1317.7 500.7C1317.7 500.7 1317.7 503.3 1317.7 503.3C1317.7 503.3 1318.3 503.3 1318.3 503.3C1318.3 503.3 1318.3 500.7 1318.3 500.7C1318.3 500.7 1317.7 500.7 1317.7 500.7ZM1305.7 498.7C1305.7 498.7 1305.7 500.3 1305.7 500.3C1305.7 500.3 1308.3 501.3 1308.3 501.3C1308.3 501.3 1308.3 499.7 1308.3 499.7C1308.3 499.7 1305.7 498.7 1305.7 498.7ZM1307.7 496.7C1307.7 496.7 1310.3 499.3 1310.3 499.3C1310.3 499.3 1310.3 497.7 1310.3 497.7C1310.3 497.7 1307.7 496.7 1307.7 496.7ZM1306.3 493.7C1306.3 493.7 1303.7 494.7 1303.7 494.7C1303.7 494.7 1304.7 496.3 1304.7 496.3C1304.7 496.3 1306.3 493.7 1306.3 493.7ZM1302.7 483.7C1302.7 483.7 1302.7 484.3 1302.7 484.3C1302.7 484.3 1303.3 484.3 1303.3 484.3C1303.3 484.3 1303.7 485.3 1303.7 485.3C1303.7 485.3 1304.3 485.3 1304.3 485.3C1304.3 485.3 1304.7 486.3 1304.7 486.3C1304.7 486.3 1305.3 486.3 1305.3 486.3C1305.3 486.3 1305.3 485.7 1305.3 485.7C1305.3 485.7 1304.7 485.7 1304.7 485.7C1304.7 485.7 1304.3 484.7 1304.3 484.7C1304.3 484.7 1303.7 484.7 1303.7 484.7C1303.7 484.7 1303.3 483.7 1303.3 483.7C1303.3 483.7 1302.7 483.7 1302.7 483.7ZM1306.7 476.7C1306.7 476.7 1305.7 478.3 1305.7 478.3C1307.7 480.3 1309 482.2 1311.7 482.7C1311.7 482.7 1310.7 484.3 1310.7 484.3C1313 485.9 1312.2 487.1 1313.7 489.3C1315.7 492.3 1316.7 491.2 1316.7 495.3C1316.7 495.3 1318.3 495.3 1318.3 495.3C1317.5 491.2 1317.3 481.9 1313.7 479.7C1313.7 483 1315.7 485 1315.7 488.3C1315.7 488.3 1314.7 488.7 1314.7 488.7C1313 484.4 1312.3 482.7 1308.3 480.3C1308.3 480.3 1309.3 478.7 1309.3 478.7C1309.3 478.7 1306.7 476.7 1306.7 476.7ZM1307.3 478.7C1307.3 478.7 1308.3 478.3 1308.3 478.3C1308.3 478.3 1308.7 479.3 1308.7 479.3C1308.7 479.3 1307.7 479.7 1307.7 479.7C1307.7 479.7 1307.3 478.7 1307.3 478.7ZM1306.3 477.7C1306.3 477.7 1307.3 477.3 1307.3 477.3C1307.3 477.3 1307.7 478.3 1307.7 478.3C1307.7 478.3 1306.7 478.7 1306.7 478.7C1306.7 478.7 1306.3 477.7 1306.3 477.7ZM1292.7 472.7C1292.7 472.7 1292.7 473.3 1292.7 473.3C1292.7 473.3 1293.3 473.3 1293.3 473.3C1293.3 473.3 1293.7 474.3 1293.7 474.3C1293.7 474.3 1294.3 474.3 1294.3 474.3C1294.3 474.3 1294.7 475.3 1294.7 475.3C1294.7 475.3 1295.3 475.3 1295.3 475.3C1295.3 475.3 1295.7 476.3 1295.7 476.3C1295.7 476.3 1296.3 476.3 1296.3 476.3C1296.3 476.3 1296.7 477.3 1296.7 477.3C1296.7 477.3 1297.3 477.3 1297.3 477.3C1297.3 477.3 1297.7 478.3 1297.7 478.3C1297.7 478.3 1298.3 478.3 1298.3 478.3C1298.3 478.3 1298.3 477.7 1298.3 477.7C1298.3 477.7 1297.7 477.7 1297.7 477.7C1297.7 477.7 1297.3 476.7 1297.3 476.7C1297.3 476.7 1296.7 476.7 1296.7 476.7C1296.7 476.7 1296.3 475.7 1296.3 475.7C1296.3 475.7 1295.7 475.7 1295.7 475.7C1295.7 475.7 1295.3 474.7 1295.3 474.7C1295.3 474.7 1294.7 474.7 1294.7 474.7C1294.7 474.7 1294.3 473.7 1294.3 473.7C1294.3 473.7 1293.7 473.7 1293.7 473.7C1293.7 473.7 1293.3 472.7 1293.3 472.7C1293.3 472.7 1292.7 472.7 1292.7 472.7ZM1286.7 465.7C1286.7 465.7 1286.7 466.3 1286.7 466.3C1286.7 466.3 1290.3 466.3 1290.3 466.3C1290.3 466.3 1290.3 465.7 1290.3 465.7C1290.3 465.7 1286.7 465.7 1286.7 465.7ZM1322.7 457.7C1322.3 461 1321.2 464.2 1322.7 467.3C1322.7 467.3 1324.3 467.3 1324.3 467.3C1324.3 467.3 1325.3 464.7 1325.3 464.7C1325.3 464.7 1323.3 465.3 1323.3 465.3C1323.3 465.3 1322.7 457.7 1322.7 457.7ZM1300.7 461.3C1304.8 465.4 1308 469 1313.3 471.3C1315.6 467.6 1310.9 465 1309.3 462.3C1308.7 461.2 1308.9 459.8 1308.3 458.7C1306.2 454.7 1302.1 459.6 1300.7 461.3ZM1319.7 449.7C1321.5 451.5 1321.1 454.8 1321.3 457.3C1321.3 457.3 1322.3 453.7 1322.3 453.7C1322.3 453.7 1321.3 453.3 1321.3 453.3C1321.3 451.1 1321.7 451 1319.7 449.7ZM1311.7 447.7C1311.7 447.7 1311.7 450.3 1311.7 450.3C1311.7 450.3 1312.3 450.3 1312.3 450.3C1312.3 450.3 1312.3 447.7 1312.3 447.7C1312.3 447.7 1311.7 447.7 1311.7 447.7ZM1318.7 444.7C1318.7 446.9 1318.3 447 1320.3 448.3C1320.3 448.3 1318.7 444.7 1318.7 444.7ZM1285.7 438.7C1285.7 438.7 1285.7 440.3 1285.7 440.3C1292.4 440.3 1296.5 445.7 1300.7 450.3C1300.7 450.3 1302.3 449.3 1302.3 449.3C1303.9 451.1 1304.8 453.3 1307.3 453.3C1307.9 457.8 1309.9 459.3 1314.3 459.3C1311.3 452.8 1308.3 448.7 1303.3 443.7C1303.3 443.7 1303.7 445.3 1303.7 445.3C1303.7 445.3 1300.7 447.7 1300.7 447.7C1297.2 444.6 1293.8 441.9 1289.3 440.3C1289.3 440.3 1291.3 438.7 1291.3 438.7C1291.3 438.7 1285.7 438.7 1285.7 438.7ZM1300.3 448.7C1300.3 448.7 1301.3 448.3 1301.3 448.3C1301.3 448.3 1301.7 449.3 1301.7 449.3C1301.7 449.3 1300.7 449.7 1300.7 449.7C1300.7 449.7 1300.3 448.7 1300.3 448.7ZM1299.3 447.7C1299.3 447.7 1300.3 447.3 1300.3 447.3C1300.3 447.3 1300.7 448.3 1300.7 448.3C1300.7 448.3 1299.7 448.7 1299.7 448.7C1299.7 448.7 1299.3 447.7 1299.3 447.7ZM1303.3 445.7C1303.3 445.7 1304.3 445.3 1304.3 445.3C1304.3 445.3 1304.7 446.3 1304.7 446.3C1304.7 446.3 1303.7 446.7 1303.7 446.7C1303.7 446.7 1303.3 445.7 1303.3 445.7Z"/><path id="plant_server_corner_foliage_left__p04183" fill="#084623" d="M1318.7 502.7C1317.7 505.4 1318 505.8 1319.3 508.3C1319.3 508.3 1318.7 502.7 1318.7 502.7ZM1308.7 500.7C1308.7 500.7 1307.7 502.3 1307.7 502.3C1310.5 504.5 1310.9 506.6 1313.3 509.3C1313.3 509.3 1312.3 503.7 1312.3 503.7C1310 503.7 1309.9 502.5 1308.7 500.7ZM1312.7 498.7C1313.8 503.9 1316.2 507.9 1317.3 513.3C1317.3 507.4 1315.4 503.9 1312.7 498.7ZM1323.7 496.7C1323.7 496.7 1323.7 508.3 1323.7 508.3C1323.7 508.3 1324.3 508.3 1324.3 508.3C1324.3 508.3 1324.3 496.7 1324.3 496.7C1324.3 496.7 1323.7 496.7 1323.7 496.7ZM1316.7 496.7C1316.7 498.9 1316.3 499 1318.3 500.3C1318.3 498.1 1318.7 498 1316.7 496.7ZM1310.7 494.7C1310.7 494.7 1312.3 497.3 1312.3 497.3C1312.3 497.3 1312.3 494.7 1312.3 494.7C1312.3 494.7 1310.7 494.7 1310.7 494.7ZM1322.7 483.7C1322.7 483.7 1322.7 488.3 1322.7 488.3C1322.7 488.3 1323.3 488.3 1323.3 488.3C1323.3 488.3 1323.3 483.7 1323.3 483.7C1323.3 483.7 1322.7 483.7 1322.7 483.7ZM1313.7 470.7C1313.7 470.7 1312.7 472.3 1312.7 472.3C1312.7 472.3 1315.3 474.3 1315.3 474.3C1315.3 474.3 1313.7 470.7 1313.7 470.7ZM1319.7 466.7C1319.7 466.7 1319.7 470.3 1319.7 470.3C1319.7 470.3 1320.3 470.3 1320.3 470.3C1320.3 470.3 1320.3 466.7 1320.3 466.7C1320.3 466.7 1319.7 466.7 1319.7 466.7ZM1309.7 458.7C1309.7 458.7 1308.7 460.3 1308.7 460.3C1308.7 460.3 1310.3 459.3 1310.3 459.3C1312.9 463.1 1315 464.7 1313.7 469.3C1313.7 469.3 1315.3 468.3 1315.3 468.3C1315.7 470.2 1315.4 470.1 1317.3 471.3C1317 469.3 1317.2 465.1 1315.3 464.3C1315.3 464.3 1315.3 459.7 1315.3 459.7C1313.2 459.7 1311.2 460.2 1309.7 458.7ZM1297.7 457.7C1297.7 457.7 1297.7 458.3 1297.7 458.3C1297.7 458.3 1298.3 458.3 1298.3 458.3C1298.3 458.3 1298.7 459.3 1298.7 459.3C1298.7 459.3 1299.3 459.3 1299.3 459.3C1299.3 459.3 1299.7 460.3 1299.7 460.3C1299.7 460.3 1300.3 460.3 1300.3 460.3C1300.3 460.3 1300.3 459.7 1300.3 459.7C1300.3 459.7 1299.7 459.7 1299.7 459.7C1299.7 459.7 1299.3 458.7 1299.3 458.7C1299.3 458.7 1298.7 458.7 1298.7 458.7C1298.7 458.7 1298.3 457.7 1298.3 457.7C1298.3 457.7 1297.7 457.7 1297.7 457.7ZM1321.7 455.7C1321.7 455.7 1321.7 459.3 1321.7 459.3C1321.7 459.3 1322.3 459.3 1322.3 459.3C1322.3 459.3 1322.3 455.7 1322.3 455.7C1322.3 455.7 1321.7 455.7 1321.7 455.7ZM1304.7 453.7C1304.7 453.7 1307.3 457.3 1307.3 457.3C1307.3 457.3 1307.3 454.7 1307.3 454.7C1307.3 454.7 1304.7 453.7 1304.7 453.7ZM1323.7 437.7C1323.7 437.7 1323.7 439.3 1323.7 439.3C1323.7 439.3 1325.3 439.3 1325.3 439.3C1325.3 439.3 1325.3 437.7 1325.3 437.7C1325.3 437.7 1323.7 437.7 1323.7 437.7Z"/><path id="plant_server_corner_foliage_left__p04184" fill="#2f2e4e" d="M1277.7 519.7C1277.7 519.7 1277.7 521.3 1277.7 521.3C1279.4 519.6 1282.1 520.9 1284.3 521.3C1284.3 521.3 1284.3 518.7 1284.3 518.7C1282.6 517.8 1281.6 517.7 1279.7 517.7C1279.7 517.7 1280.7 519.3 1280.7 519.3C1280.7 519.3 1277.7 519.7 1277.7 519.7ZM1285.7 493.7C1285.7 493.7 1285.7 495.3 1285.7 495.3C1285.7 495.3 1293.3 495.3 1293.3 495.3C1293.3 495.3 1285.7 493.7 1285.7 493.7ZM1282.7 469.7C1284 471.8 1283.1 471.3 1285.3 471.3C1284 469.2 1284.9 469.7 1282.7 469.7ZM1298.7 465.7C1298.7 465.7 1302.3 467.3 1302.3 467.3C1302.3 467.3 1302.3 465.7 1302.3 465.7C1302.3 465.7 1298.7 465.7 1298.7 465.7Z"/><path id="plant_server_corner_foliage_left__p04185" fill="#093019" d="M1315.7 509.7C1315.7 509.7 1315.7 513.3 1315.7 513.3C1315.7 513.3 1316.3 513.3 1316.3 513.3C1316.3 513.3 1316.3 509.7 1316.3 509.7C1316.3 509.7 1315.7 509.7 1315.7 509.7ZM1317.7 505.7C1317.7 505.7 1316.7 506.7 1316.7 506.7C1318.4 508.4 1317.7 511 1317.7 513.3C1317.7 513.3 1318.7 511.3 1318.7 511.3C1318.7 511.3 1320.3 513.3 1320.3 513.3C1320.3 513.3 1320.3 506.7 1320.3 506.7C1320.3 506.7 1318.7 508.7 1318.7 508.7C1318.7 508.7 1317.7 505.7 1317.7 505.7ZM1315.3 505.7C1315.3 505.7 1312.7 509.7 1312.7 509.7C1312.7 509.7 1313.7 510.7 1313.7 510.7C1313.7 510.7 1312.7 513.3 1312.7 513.3C1314.6 510.9 1314.8 508.7 1315.3 505.7ZM1277.7 503.7C1277.7 503.7 1278.3 509.3 1278.3 509.3C1278.3 509.3 1278.3 507.7 1278.3 507.7C1280.2 507.3 1280.1 507.6 1281.3 505.7C1281.3 505.7 1278.7 505.7 1278.7 505.7C1278.7 505.7 1277.7 503.7 1277.7 503.7ZM1313.3 497.7C1311.3 497.7 1311.1 498.3 1309.7 499.7C1309.7 499.7 1310.7 503.3 1310.7 503.3C1311.1 500.5 1310.7 499 1313.3 497.7ZM1316.7 495.7C1316.7 495.7 1318.3 497.3 1318.3 497.3C1318.3 497.3 1318.3 495.7 1318.3 495.7C1318.3 495.7 1316.7 495.7 1316.7 495.7ZM1305.7 495.7C1305.7 497.9 1306.6 498 1308.3 499.3C1308.3 499.3 1305.7 495.7 1305.7 495.7ZM1307.7 494.7C1307.7 494.7 1307.7 495.3 1307.7 495.3C1307.7 495.3 1308.3 495.3 1308.3 495.3C1308.3 495.3 1308.7 496.3 1308.7 496.3C1308.7 496.3 1309.3 496.3 1309.3 496.3C1309.3 496.3 1309.7 497.3 1309.7 497.3C1309.7 497.3 1310.3 497.3 1310.3 497.3C1310.3 497.3 1310.3 496.7 1310.3 496.7C1310.3 496.7 1309.7 496.7 1309.7 496.7C1309.7 496.7 1309.3 495.7 1309.3 495.7C1309.3 495.7 1308.7 495.7 1308.7 495.7C1308.7 495.7 1308.3 494.7 1308.3 494.7C1308.3 494.7 1307.7 494.7 1307.7 494.7ZM1288.7 492.7C1288.7 492.7 1288.7 493.3 1288.7 493.3C1288.7 493.3 1291.3 493.3 1291.3 493.3C1291.3 493.3 1291.3 492.7 1291.3 492.7C1291.3 492.7 1288.7 492.7 1288.7 492.7ZM1323.7 491.7C1323.7 491.7 1323.7 496.3 1323.7 496.3C1323.7 496.3 1324.3 496.3 1324.3 496.3C1324.3 496.3 1324.3 491.7 1324.3 491.7C1324.3 491.7 1323.7 491.7 1323.7 491.7ZM1305.7 476.7C1305.7 476.7 1305.7 477.3 1305.7 477.3C1305.7 477.3 1306.3 477.3 1306.3 477.3C1306.3 477.3 1306.7 478.3 1306.7 478.3C1306.7 478.3 1307.3 478.3 1307.3 478.3C1307.3 478.3 1307.7 479.3 1307.7 479.3C1307.7 479.3 1308.3 479.3 1308.3 479.3C1308.3 479.3 1308.7 480.3 1308.7 480.3C1308.7 480.3 1309.3 480.3 1309.3 480.3C1309.3 480.3 1309.3 479.7 1309.3 479.7C1309.3 479.7 1308.7 479.7 1308.7 479.7C1308.7 479.7 1308.3 478.7 1308.3 478.7C1308.3 478.7 1307.7 478.7 1307.7 478.7C1307.7 478.7 1307.3 477.7 1307.3 477.7C1307.3 477.7 1306.7 477.7 1306.7 477.7C1306.7 477.7 1306.3 476.7 1306.3 476.7C1306.3 476.7 1305.7 476.7 1305.7 476.7ZM1319.7 470.7C1319.7 470.7 1319.7 474.3 1319.7 474.3C1319.7 474.3 1320.7 474.7 1320.7 474.7C1320.7 476.7 1321.1 477.9 1319.7 479.3C1319.7 479.3 1321.3 479.3 1321.3 479.3C1321.3 479.3 1322.3 481.3 1322.3 481.3C1322.3 481.3 1321.3 475.7 1321.3 475.7C1321.3 475.7 1322.7 475.7 1322.7 475.7C1322.7 475.7 1322.7 478.3 1322.7 478.3C1323.5 475 1321.3 474 1321.3 470.7C1321.3 470.7 1319.7 470.7 1319.7 470.7ZM1307.3 467.7C1307.3 467.7 1306.7 467.7 1306.7 467.7C1306.7 467.7 1306.7 468.3 1306.7 468.3C1306.7 468.3 1305.7 468.7 1305.7 468.7C1305.7 468.7 1305.7 470.3 1305.7 470.3C1305.7 470.3 1304.7 470.7 1304.7 470.7C1304.7 470.7 1304.7 471.3 1304.7 471.3C1304.7 471.3 1305.3 471.3 1305.3 471.3C1305.3 471.3 1305.3 470.7 1305.3 470.7C1305.3 470.7 1306.3 470.3 1306.3 470.3C1306.3 470.3 1306.3 468.7 1306.3 468.7C1306.3 468.7 1307.3 468.3 1307.3 468.3C1307.3 468.3 1307.3 467.7 1307.3 467.7ZM1315.7 461.7C1315.7 461.7 1315.7 464.3 1315.7 464.3C1315.7 464.3 1316.3 464.3 1316.3 464.3C1316.3 464.3 1316.3 461.7 1316.3 461.7C1316.3 461.7 1315.7 461.7 1315.7 461.7ZM1307.7 456.7C1307.7 459.5 1308.6 457.8 1309.7 459.7C1310.3 460.8 1310.1 462.2 1310.7 463.3C1311.1 464 1312.2 464.1 1312.7 464.7C1314.5 466.9 1314.7 469.6 1314.7 472.3C1314.7 472.3 1317.3 472.3 1317.3 472.3C1313.4 467.1 1312.4 461.9 1307.7 456.7ZM1300.7 448.7C1301.6 451.1 1302.4 453.3 1305.3 453.3C1305.3 453.3 1300.7 448.7 1300.7 448.7ZM1311.3 447.7C1311.3 447.7 1309.7 449.3 1309.7 449.3C1309.7 449.3 1311.3 449.3 1311.3 449.3C1311.3 449.3 1311.3 447.7 1311.3 447.7Z"/><path id="plant_server_corner_foliage_left__p04186" fill="#262240" d="M1277.7 517.7C1277.7 517.7 1277.7 519.3 1277.7 519.3C1277.7 519.3 1280.3 519.3 1280.3 519.3C1279 517.2 1279.9 517.7 1277.7 517.7ZM1316.7 514.7C1316.7 514.7 1316.7 515.3 1316.7 515.3C1316.7 515.3 1322.3 515.3 1322.3 515.3C1322.3 515.3 1322.3 514.7 1322.3 514.7C1322.3 514.7 1316.7 514.7 1316.7 514.7ZM1306.7 504.7C1306.7 507.7 1308.7 507.7 1308.7 510.3C1308.7 510.3 1310.3 510.3 1310.3 510.3C1309.5 507.4 1309.1 506.5 1306.7 504.7ZM1277.7 500.7C1277.7 500.7 1277.7 503.3 1277.7 503.3C1277.7 503.3 1281.3 502.3 1281.3 502.3C1281.3 502.3 1282.7 503.7 1282.7 503.7C1281.6 506 1282 506.8 1282.7 509.3C1282.7 509.3 1281.3 510.7 1281.3 510.7C1281.3 510.7 1277.7 509.7 1277.7 509.7C1277.7 509.7 1277.7 512.3 1277.7 512.3C1279.2 512.3 1281.9 512.8 1283.3 512.3C1285.8 511.4 1283.2 502.5 1282.3 500.7C1282.3 500.7 1277.7 500.7 1277.7 500.7ZM1296.7 497.7C1296.7 497.7 1304.3 503.3 1304.3 503.3C1304.3 499.2 1299.9 498.4 1296.7 497.7ZM1289.7 493.7C1289.7 493.7 1289.7 494.3 1289.7 494.3C1289.7 494.3 1292.3 494.3 1292.3 494.3C1292.3 494.3 1292.3 493.7 1292.3 493.7C1292.3 493.7 1289.7 493.7 1289.7 493.7ZM1291.3 487.7C1291.3 487.7 1290.3 488.7 1290.3 488.7C1290.3 488.7 1287.7 487.7 1287.7 487.7C1285.7 489.7 1285.7 490.4 1285.7 493.3C1286.6 489.4 1289.4 490.8 1291.3 487.7ZM1292.7 486.7C1292.7 486.7 1292.7 488.3 1292.7 488.3C1292.7 488.3 1304.3 489.3 1304.3 489.3C1304.3 486.5 1299.5 481.7 1296.7 481.7C1298.7 483.7 1298.7 484 1298.3 486.7C1298.3 486.7 1292.7 486.7 1292.7 486.7ZM1293.7 477.7C1293.7 477.7 1293.7 479.3 1293.7 479.3C1293.7 479.3 1296.3 480.3 1296.3 480.3C1296.3 480.3 1296.3 478.7 1296.3 478.7C1296.3 478.7 1293.7 477.7 1293.7 477.7ZM1289.7 474.7C1289.7 474.7 1291.3 476.3 1291.3 476.3C1291.3 476.3 1291.3 474.7 1291.3 474.7C1291.3 474.7 1289.7 474.7 1289.7 474.7ZM1291.7 450.7C1291.7 452.9 1291.2 452 1293.3 453.3C1293.3 453.3 1291.7 450.7 1291.7 450.7Z"/><path id="plant_server_corner_foliage_left__p04187" fill="#191734" d="M1302.7 499.7C1304.4 501.4 1304.7 501.8 1304.7 504.3C1304.7 504.3 1308.3 505.3 1308.3 505.3C1308.3 505.3 1302.7 499.7 1302.7 499.7ZM1294.7 496.7C1294.7 496.7 1294.7 497.3 1294.7 497.3C1294.7 497.3 1297.3 497.3 1297.3 497.3C1297.3 497.3 1297.3 496.7 1297.3 496.7C1297.3 496.7 1294.7 496.7 1294.7 496.7ZM1292.7 493.7C1292.7 493.7 1294.3 495.3 1294.3 495.3C1294.3 495.3 1294.3 493.7 1294.3 493.7C1294.3 493.7 1292.7 493.7 1292.7 493.7ZM1302.7 489.7C1302.7 489.7 1302.7 490.3 1302.7 490.3C1302.7 490.3 1305.3 490.3 1305.3 490.3C1305.3 490.3 1305.3 489.7 1305.3 489.7C1305.3 489.7 1302.7 489.7 1302.7 489.7ZM1291.7 486.7C1291.7 486.7 1292.7 489.3 1292.7 489.3C1292.7 489.3 1298.3 489.3 1298.3 489.3C1298.3 489.3 1298.7 490.3 1298.7 490.3C1298.7 490.3 1300.3 489.3 1300.3 489.3C1296.9 489 1293.3 489.9 1291.7 486.7ZM1297.3 479.7C1297.3 479.7 1295.7 481.3 1295.7 481.3C1295.7 481.3 1297.3 481.3 1297.3 481.3C1297.3 481.3 1297.3 479.7 1297.3 479.7ZM1291.7 474.7C1291.7 474.7 1292.7 475.7 1292.7 475.7C1292.7 475.7 1291.7 477.3 1291.7 477.3C1291.7 477.3 1293.3 478.3 1293.3 478.3C1293.3 478.3 1294.3 476.7 1294.3 476.7C1294.3 476.7 1291.7 474.7 1291.7 474.7ZM1285.7 471.7C1285.7 471.7 1288.3 472.3 1288.3 472.3C1288.3 472.3 1287.3 470.7 1287.3 470.7C1287.3 470.7 1285.7 471.7 1285.7 471.7ZM1288.7 463.7C1288.7 463.7 1288.7 464.3 1288.7 464.3C1288.7 464.3 1293.3 464.3 1293.3 464.3C1293.3 464.3 1293.3 463.7 1293.3 463.7C1293.3 463.7 1288.7 463.7 1288.7 463.7Z"/><path id="plant_server_corner_foliage_left__p04188" fill="#051c10" d="M1322.7 514.7C1322.7 514.7 1322.7 515.3 1322.7 515.3C1322.7 515.3 1325.3 515.3 1325.3 515.3C1325.3 515.3 1325.3 514.7 1325.3 514.7C1325.3 514.7 1322.7 514.7 1322.7 514.7ZM1314.7 501.7C1314.7 501.7 1317.3 506.3 1317.3 506.3C1317.3 506.3 1317.3 501.7 1317.3 501.7C1317.3 501.7 1316.3 502.7 1316.3 502.7C1316.3 502.7 1314.7 501.7 1314.7 501.7ZM1306.7 496.7C1308.3 498.3 1307.9 498.6 1308.7 500.3C1310.3 503.6 1318.5 507.5 1313.7 512.3C1313.7 512.3 1315.3 513.3 1315.3 513.3C1315.3 513.3 1315.3 507.7 1315.3 507.7C1315.3 507.7 1314.3 507.3 1314.3 507.3C1314.3 504.4 1313 499.2 1310.7 497.7C1312 499 1311.7 499.5 1311.7 501.3C1311.7 501.3 1310.7 501.7 1310.7 501.7C1309.6 499.3 1308.8 498.3 1306.7 496.7ZM1325.3 494.7C1325.3 494.7 1324.3 510.7 1324.3 510.7C1324.3 510.7 1323.3 510.3 1323.3 510.3C1323.3 510.3 1322.7 500.7 1322.7 500.7C1322.7 500.7 1322.7 510.3 1322.7 510.3C1322.7 510.3 1323.7 510.7 1323.7 510.7C1323.7 510.7 1323.7 513.3 1323.7 513.3C1326.6 507.9 1325.3 500.7 1325.3 494.7ZM1310.7 491.7C1310.7 491.7 1309.7 494.3 1309.7 494.3C1309.7 494.3 1310.7 493.3 1310.7 493.3C1310.7 493.3 1312.3 494.3 1312.3 494.3C1312.3 494.3 1310.7 491.7 1310.7 491.7ZM1298.7 479.7C1298.7 479.7 1297.7 481.3 1297.7 481.3C1297.7 481.3 1300.3 483.3 1300.3 483.3C1300.3 483.3 1301.3 481.7 1301.3 481.7C1301.3 481.7 1298.7 479.7 1298.7 479.7ZM1299.3 481.7C1299.3 481.7 1300.3 481.3 1300.3 481.3C1300.3 481.3 1300.7 482.3 1300.7 482.3C1300.7 482.3 1299.7 482.7 1299.7 482.7C1299.7 482.7 1299.3 481.7 1299.3 481.7ZM1298.3 480.7C1298.3 480.7 1299.3 480.3 1299.3 480.3C1299.3 480.3 1299.7 481.3 1299.7 481.3C1299.7 481.3 1298.7 481.7 1298.7 481.7C1298.7 481.7 1298.3 480.7 1298.3 480.7ZM1325.3 476.7C1325.3 476.7 1323.7 476.7 1323.7 476.7C1322.6 479 1322.7 480.8 1322.7 483.3C1322.7 483.3 1325.3 482.3 1325.3 482.3C1325.3 482.3 1325.3 476.7 1325.3 476.7ZM1302.7 466.7C1302.7 466.7 1301.7 469.3 1301.7 469.3C1301.7 469.3 1303.3 468.3 1303.3 468.3C1303.3 468.3 1303.7 470.3 1303.7 470.3C1306.8 471.2 1308 472 1310.3 474.3C1310.3 474.3 1308.3 471.7 1308.3 471.7C1310.1 469.9 1309.1 470.1 1311.3 470.7C1309.6 469.6 1308.8 468.7 1306.7 468.7C1306.7 468.7 1305.7 470.7 1305.7 470.7C1305.7 470.7 1304.3 469.3 1304.3 469.3C1304.3 469.3 1305.3 467.7 1305.3 467.7C1305.3 467.7 1302.7 466.7 1302.7 466.7ZM1316.7 466.7C1318.2 468.2 1317.7 470.2 1317.7 472.3C1317.7 472.3 1315.7 472.7 1315.7 472.7C1315.7 475.1 1315.7 475.3 1317.7 476.7C1317.7 476.7 1316.7 478.3 1316.7 478.3C1316.7 478.3 1319.3 478.3 1319.3 478.3C1320.7 475.4 1319.5 470 1319.7 466.3C1319.7 466.3 1320.7 466.7 1320.7 466.7C1320.7 470.3 1321.7 472.1 1323.3 475.3C1324.3 468.8 1324.2 465.1 1316.7 466.7ZM1318.7 474.3C1318.7 474.3 1319.7 474.7 1319.7 474.7C1319.7 474.7 1319.3 476.7 1319.3 476.7C1319.3 476.7 1318.3 476.3 1318.3 476.3C1318.3 476.3 1318.7 474.3 1318.7 474.3ZM1297.3 467.3C1297.3 467.3 1296.3 464.7 1296.3 464.7C1294.9 466.1 1293.7 465.7 1291.7 465.7C1291.7 465.7 1297.3 467.3 1297.3 467.3ZM1300.7 461.7C1300.7 461.7 1300.7 462.3 1300.7 462.3C1300.7 462.3 1301.3 462.3 1301.3 462.3C1301.3 462.3 1301.7 463.3 1301.7 463.3C1301.7 463.3 1302.3 463.3 1302.3 463.3C1302.3 463.3 1302.7 464.3 1302.7 464.3C1302.7 464.3 1303.3 464.3 1303.3 464.3C1303.3 464.3 1303.3 463.7 1303.3 463.7C1303.3 463.7 1302.7 463.7 1302.7 463.7C1302.7 463.7 1302.3 462.7 1302.3 462.7C1302.3 462.7 1301.7 462.7 1301.7 462.7C1301.7 462.7 1301.3 461.7 1301.3 461.7C1301.3 461.7 1300.7 461.7 1300.7 461.7ZM1295.7 455.7C1295.7 457.9 1295.2 457 1297.3 458.3C1297.3 458.3 1295.7 455.7 1295.7 455.7ZM1300.7 441.7C1306.2 446.7 1311.2 450.3 1313.7 457.3C1313.7 457.3 1315.3 457.3 1315.3 457.3C1313 455 1312.4 452.7 1311.3 449.7C1307.4 449.7 1304.6 443.2 1300.7 441.7ZM1294.7 438.7C1296 440.8 1295.1 440.3 1297.3 440.3C1297.3 440.3 1294.7 438.7 1294.7 438.7ZM1321.7 437.7C1321.7 437.7 1325.3 445.3 1325.3 445.3C1325.3 444.2 1325.7 441.7 1325.3 440.7C1324.4 438.7 1323.3 440.6 1323.3 437.7C1323.3 437.7 1321.7 437.7 1321.7 437.7ZM1307.7 437.7C1307.7 437.7 1307.7 440.3 1307.7 440.3C1307.7 440.3 1308.3 440.3 1308.3 440.3C1308.3 440.3 1308.3 437.7 1308.3 437.7C1308.3 437.7 1307.7 437.7 1307.7 437.7Z"/><path id="plant_server_corner_foliage_left__p04189" fill="#100b21" d="M1292.7 495.7C1292.7 495.7 1297.3 496.3 1297.3 496.3C1297.3 496.3 1297.7 497.3 1297.7 497.3C1297.7 497.3 1299.3 496.3 1299.3 496.3C1299.3 496.3 1297.7 496.7 1297.7 496.7C1297.7 496.7 1297.3 494.7 1297.3 494.7C1297.3 494.7 1292.7 495.7 1292.7 495.7ZM1285.7 468.7C1285.7 468.7 1285.7 470.3 1285.7 470.3C1285.7 470.3 1288.7 471.7 1288.7 471.7C1288.7 471.7 1287.7 473.3 1287.7 473.3C1287.7 473.3 1291.3 474.3 1291.3 474.3C1289.9 472.9 1289.3 472.7 1289.3 470.7C1289.3 470.7 1285.7 468.7 1285.7 468.7ZM1299.7 466.7C1299.7 466.7 1299.7 468.3 1299.7 468.3C1299.7 468.3 1303.3 469.3 1303.3 469.3C1303.3 469.3 1299.7 466.7 1299.7 466.7ZM1283.7 463.7C1283.7 463.7 1283.7 464.3 1283.7 464.3C1283.7 464.3 1288.3 464.3 1288.3 464.3C1288.3 464.3 1288.3 463.7 1288.3 463.7C1288.3 463.7 1283.7 463.7 1283.7 463.7ZM1302.3 465.3C1302.3 465.3 1301.3 462.7 1301.3 462.7C1299.5 464.5 1296.1 463.7 1293.7 463.7C1293.7 463.7 1294.7 465.3 1294.7 465.3C1294.7 465.3 1296.3 464.3 1296.3 464.3C1296.3 464.3 1297.7 467.3 1297.7 467.3C1297.7 467.3 1297.7 465.3 1297.7 465.3C1297.7 465.3 1302.3 465.3 1302.3 465.3Z"/><path id="plant_server_corner_foliage_left__p04190" fill="#01060a" d="M1297.7 495.7C1302.2 499.7 1307.2 501.6 1309.7 507.3C1310.6 509.3 1311.7 507.4 1311.7 510.3C1311.7 510.3 1309.7 511.3 1309.7 511.3C1309.7 511.3 1313.3 511.3 1313.3 511.3C1310.1 503.8 1305.2 498.9 1297.7 495.7ZM1311.7 492.7C1313.5 496.3 1313.7 499.2 1316.3 502.3C1316.3 497 1315.6 496.1 1311.7 492.7ZM1288.3 490.7C1286.2 492 1286.7 491.1 1286.7 493.3C1286.7 493.3 1288.3 493.3 1288.3 493.3C1288.3 493.3 1288.3 490.7 1288.3 490.7ZM1325.3 482.7C1325.3 482.7 1323.7 482.7 1323.7 482.7C1323.7 488.1 1323.5 493.3 1318.7 496.7C1318.7 496.7 1319.7 505.3 1319.7 505.3C1319.7 505.3 1320.7 505.7 1320.7 505.7C1320.7 505.7 1320.7 513.3 1320.7 513.3C1318.4 513.5 1315.4 514.4 1313.7 512.7C1313.7 512.7 1310.7 514.3 1310.7 514.3C1310.7 514.3 1325.3 514.3 1325.3 514.3C1325.3 514.3 1325.3 510.7 1325.3 510.7C1325.3 510.7 1323.7 513.7 1323.7 513.7C1323.7 513.7 1323.3 510.7 1323.3 510.7C1323.3 510.7 1322.3 510.3 1322.3 510.3C1322.3 510.3 1322.3 500.7 1322.3 500.7C1322.3 500.7 1323.3 500.3 1323.3 500.3C1323.3 500.3 1323.3 496.7 1323.3 496.7C1323.3 496.7 1322.3 496.3 1322.3 496.3C1322.3 496.3 1323.3 494.7 1323.3 494.7C1323.3 494.7 1322.3 493.7 1322.3 493.7C1322.3 493.7 1324.3 490.3 1324.3 490.3C1324.3 490.3 1325.3 494.3 1325.3 494.3C1325.3 494.3 1325.3 482.7 1325.3 482.7ZM1318.7 474.7C1318.7 474.7 1318.7 476.3 1318.7 476.3C1318.7 476.3 1319.7 476.7 1319.7 476.7C1319.7 476.7 1319.7 478.3 1319.7 478.3C1319.7 478.3 1320.3 478.3 1320.3 478.3C1320.3 478.3 1320.3 476.7 1320.3 476.7C1320.3 476.7 1319.3 476.3 1319.3 476.3C1319.3 476.3 1319.3 474.7 1319.3 474.7C1319.3 474.7 1318.7 474.7 1318.7 474.7ZM1289.7 471.7C1293.7 475.7 1298.4 479.6 1300.7 484.3C1302.1 487.3 1304.7 487.6 1305.7 491.3C1305.7 491.3 1304.7 491.7 1304.7 491.7C1304.7 491.7 1302.3 489.7 1302.3 489.7C1302.3 489.7 1300.7 490.3 1300.7 490.3C1304.9 492.1 1307.8 494.4 1311.3 497.3C1309.6 494.8 1309.2 494.5 1310.3 491.7C1307.1 488.6 1300.1 484.3 1298.3 480.3C1297 477.5 1293.5 471.7 1289.7 471.7ZM1308.7 471.7C1311.6 475.1 1312.9 476.3 1317.3 477.3C1315.1 474.8 1312.3 469.5 1308.7 471.7ZM1325.3 466.7C1325 468.4 1325.4 470 1323.7 470.7C1323.7 470.7 1323.7 476.3 1323.7 476.3C1323.7 476.3 1325.3 476.3 1325.3 476.3C1325.3 476.3 1325.3 466.7 1325.3 466.7ZM1282.7 468.3C1282.7 468.3 1284.3 468.3 1284.3 468.3C1284.3 468.3 1285.7 465.3 1285.7 465.3C1285.7 465.3 1294.3 464.7 1294.3 464.7C1294.3 464.7 1282.7 464.7 1282.7 464.7C1282.7 464.7 1283.7 465.7 1283.7 465.7C1283.7 465.7 1282.7 468.3 1282.7 468.3ZM1301.7 463.7C1302.8 466.4 1303.8 466.9 1306.3 468.3C1306.3 468.3 1301.7 463.7 1301.7 463.7ZM1297.7 458.7C1297.7 458.7 1297.7 459.3 1297.7 459.3C1297.7 459.3 1298.3 459.3 1298.3 459.3C1298.3 459.3 1298.7 460.3 1298.7 460.3C1298.7 460.3 1299.3 460.3 1299.3 460.3C1299.3 460.3 1299.7 461.3 1299.7 461.3C1299.7 461.3 1300.3 461.3 1300.3 461.3C1300.3 461.3 1300.3 460.7 1300.3 460.7C1300.3 460.7 1299.7 460.7 1299.7 460.7C1299.7 460.7 1299.3 459.7 1299.3 459.7C1299.3 459.7 1298.7 459.7 1298.7 459.7C1298.7 459.7 1298.3 458.7 1298.3 458.7C1298.3 458.7 1297.7 458.7 1297.7 458.7ZM1314.7 457.7C1316.3 460.9 1316.7 462.8 1316.7 466.3C1316.7 466.3 1320.3 465.3 1320.3 465.3C1320.3 465.3 1314.7 457.7 1314.7 457.7ZM1292.7 451.7C1292.7 451.7 1292.7 452.3 1292.7 452.3C1292.7 452.3 1293.7 452.7 1293.7 452.7C1293.7 452.7 1293.7 454.3 1293.7 454.3C1293.7 454.3 1294.3 454.3 1294.3 454.3C1294.3 454.3 1294.7 455.3 1294.7 455.3C1294.7 455.3 1295.3 455.3 1295.3 455.3C1295.3 455.3 1295.3 454.7 1295.3 454.7C1295.3 454.7 1294.3 454.3 1294.3 454.3C1294.3 454.3 1294.3 452.7 1294.3 452.7C1294.3 452.7 1293.7 452.7 1293.7 452.7C1293.7 452.7 1293.3 451.7 1293.3 451.7C1293.3 451.7 1292.7 451.7 1292.7 451.7ZM1283.7 437.7C1283.7 439.9 1285.8 441.1 1286.7 443.3C1286.7 443.3 1287.3 442.7 1287.3 442.7C1287.3 442.7 1284.3 439.3 1284.3 439.3C1284.3 439.3 1284.7 438.3 1284.7 438.3C1288 438.3 1291.3 437.8 1294.3 439.3C1291.3 436.9 1287.5 437.7 1283.7 437.7Z"/></g></svg>