<svg xmlns="http://www.w3.org/2000/svg" width="1648" height="928" viewBox="0 0 1648 928"><title>ThatDeveloperGuy — IT Services — rive-import — plant_rear_cabinet_right_foliage_right</title><g id="plant_rear_cabinet_right_foliage_right"><path id="plant_rear_cabinet_right_foliage_right__p03983" fill="#1d7d37" d="M518.3 470.7C513.9 471.7 512.6 472.9 509.7 476.3C509.7 476.3 512.7 473.3 512.7 473.3C512.7 473.3 515.3 475.3 515.3 475.3C515.3 475.3 518.3 470.7 518.3 470.7ZM508.3 467.7C504.7 469.1 503.3 471.6 504.7 475.3C504.7 475.3 506.3 475.3 506.3 475.3C506.3 475.3 508.3 467.7 508.3 467.7ZM503.3 467.7C503.3 467.7 501.7 467.7 501.7 467.7C501.7 467.7 500.7 473.3 500.7 473.3C502.9 471.9 502.8 470.2 503.3 467.7Z"/><path id="plant_rear_cabinet_right_foliage_right__p03984" fill="#615b8c" d="M513.7 479.7C513.7 479.7 512.7 481.3 512.7 481.3C512.7 481.3 514.3 482.3 514.3 482.3C514.3 482.3 513.7 479.7 513.7 479.7ZM511.3 471.7C511.3 471.7 510.3 472.7 510.3 472.7C510.3 472.7 508.7 471.7 508.7 471.7C508.7 471.7 509.7 473.3 509.7 473.3C509.7 473.3 507.7 474.3 507.7 474.3C509.9 474.3 510 473.4 511.3 471.7Z"/><path id="plant_rear_cabinet_right_foliage_right__p03986" fill="#0e5f2f" d="M518.3 483.7C516.5 483.9 512.2 483.7 510.7 484.7C508.7 486 506.9 491.2 505.7 493.3C511.3 493.3 514.5 487.7 518.3 483.7ZM516.3 474.7C516.3 474.7 514.7 475.7 514.7 475.7C514.7 475.7 511.7 472.7 511.7 472.7C508.2 476.2 506.5 480.2 504.3 484.7C504.3 484.7 503.3 484.3 503.3 484.3C503.3 483.1 502.9 481.8 503.3 480.7C504.1 478.4 506.3 478.5 506.3 475.7C506.3 475.7 502.7 474.7 502.7 474.7C502.7 474.7 501.7 482.3 501.7 482.3C501.7 482.3 500.7 482.7 500.7 482.7C500.7 482.7 500.7 486.3 500.7 486.3C500.7 486.3 502.7 486.7 502.7 486.7C502.7 486.7 502.7 491.3 502.7 491.3C503.6 489.4 504.3 486.1 506.3 485.3C506.3 485.3 507.3 487.3 507.3 487.3C509.9 482.3 512.3 478.7 516.3 474.7ZM502.7 484.3C502.7 484.3 503.7 484.7 503.7 484.7C503.7 484.7 503.3 486.7 503.3 486.7C503.3 486.7 502.3 486.3 502.3 486.3C502.3 486.3 502.7 484.3 502.7 484.3ZM509.3 475.7C509.3 475.7 510.3 475.3 510.3 475.3C510.3 475.3 510.7 476.3 510.7 476.3C510.7 476.3 509.7 476.7 509.7 476.7C509.7 476.7 509.3 475.7 509.3 475.7ZM510.3 474.7C510.3 474.7 511.3 474.3 511.3 474.3C511.3 474.3 511.7 475.3 511.7 475.3C511.7 475.3 510.7 475.7 510.7 475.7C510.7 475.7 510.3 474.7 510.3 474.7ZM511.3 473.7C511.3 473.7 512.3 473.3 512.3 473.3C512.3 473.3 512.7 474.3 512.7 474.3C512.7 474.3 511.7 474.7 511.7 474.7C511.7 474.7 511.3 473.7 511.3 473.7ZM503.7 467.7C503.7 467.7 505.3 470.3 505.3 470.3C505.3 470.3 506.3 467.7 506.3 467.7C506.3 467.7 505.3 468.7 505.3 468.7C505.3 468.7 503.7 467.7 503.7 467.7Z"/><path id="plant_rear_cabinet_right_foliage_right__p03987" fill="#3d3c5c" d="M514.7 481.7C514.7 481.7 514.7 482.3 514.7 482.3C514.7 482.3 518.3 482.3 518.3 482.3C518.3 482.3 518.3 481.7 518.3 481.7C518.3 481.7 514.7 481.7 514.7 481.7Z"/><path id="plant_rear_cabinet_right_foliage_right__p03988" fill="#084623" d="M507.3 487.7C507.3 487.7 507.7 489.3 507.7 489.3C506.1 490.4 505.7 490.2 505.7 492.3C505.7 492.3 508.3 489.3 508.3 489.3C508.3 489.3 507.3 487.7 507.3 487.7ZM504.3 480.7C503.8 483.5 503.3 485 501.7 487.3C503.9 484.8 504.3 484 504.3 480.7ZM506.7 472.7C506.7 472.7 506.7 475.3 506.7 475.3C506.7 475.3 507.3 475.3 507.3 475.3C507.3 475.3 507.3 472.7 507.3 472.7C507.3 472.7 506.7 472.7 506.7 472.7ZM515.7 470.3C515.7 470.3 519.3 468.7 519.3 468.7C517.1 468.7 517 468.3 515.7 470.3ZM505.3 467.7C502.4 469.5 504.8 469 503.7 471.3C502.8 473.2 501.4 473.7 500.7 476.3C500.7 476.3 502.3 476.3 502.3 476.3C502.3 476.3 505.3 467.7 505.3 467.7Z"/><path id="plant_rear_cabinet_right_foliage_right__p03990" fill="#093019" d="M519.3 484.7C514.7 484.7 513.2 491.9 509.3 493.7C508.6 494 506.1 493.4 505.3 493.3C505.3 490 507 489 509.3 486.7C509.3 486.7 507.7 486.7 507.7 486.7C507.7 486.7 507.3 488.7 507.3 488.7C507.3 488.7 506.3 486.7 506.3 486.7C503.9 488.2 503.9 491 503.3 493.7C503.3 493.7 502.3 493.3 502.3 493.3C502.3 490.6 503.2 488.2 500.7 486.7C500.7 486.7 500.7 494.3 500.7 494.3C500.7 494.3 509.3 494.3 509.3 494.3C509.3 494.3 509.7 493.3 509.7 493.3C509.7 493.3 511.3 494.3 511.3 494.3C511.3 490.9 516.9 487.1 519.3 484.7ZM511.7 482.7C511.7 482.7 511.7 484.3 511.7 484.3C511.7 484.3 513.3 484.3 513.3 484.3C513.3 484.3 513.3 482.7 513.3 482.7C513.3 482.7 511.7 482.7 511.7 482.7ZM516.3 475.7C516.3 475.7 515.7 475.7 515.7 475.7C515.7 475.7 515.7 476.3 515.7 476.3C515.7 476.3 514.7 476.7 514.7 476.7C514.7 476.7 514.7 477.3 514.7 477.3C514.7 477.3 513.7 477.7 513.7 477.7C513.7 477.7 513.7 478.3 513.7 478.3C513.7 478.3 514.3 478.3 514.3 478.3C514.3 478.3 514.3 477.7 514.3 477.7C514.3 477.7 515.3 477.3 515.3 477.3C515.3 477.3 515.3 476.7 515.3 476.7C515.3 476.7 516.3 476.3 516.3 476.3C516.3 476.3 516.3 475.7 516.3 475.7ZM510.3 473.7C510.3 473.7 507.7 475.3 507.7 475.3C509.9 475.3 509 475.8 510.3 473.7ZM520.3 470.7C520.3 470.7 519.7 470.7 519.7 470.7C519.7 470.7 519.7 471.3 519.7 471.3C519.7 471.3 518.7 471.7 518.7 471.7C518.7 471.7 518.7 472.3 518.7 472.3C518.7 472.3 517.7 472.7 517.7 472.7C517.7 472.7 517.7 473.3 517.7 473.3C517.7 473.3 516.7 473.7 516.7 473.7C516.7 473.7 516.7 474.3 516.7 474.3C516.7 474.3 517.3 474.3 517.3 474.3C517.3 474.3 517.3 473.7 517.3 473.7C517.3 473.7 518.3 473.3 518.3 473.3C518.3 473.3 518.3 472.7 518.3 472.7C518.3 472.7 519.3 472.3 519.3 472.3C519.3 472.3 519.3 471.7 519.3 471.7C519.3 471.7 520.3 471.3 520.3 471.3C520.3 471.3 520.3 470.7 520.3 470.7ZM515.3 469.7C515.3 469.7 512.7 471.3 512.7 471.3C514.9 471.3 514 471.8 515.3 469.7ZM509.3 467.7C509.3 467.7 507.7 472.3 507.7 472.3C509.1 470.5 509.3 470 509.3 467.7Z"/><path id="plant_rear_cabinet_right_foliage_right__p03992" fill="#051c10" d="M513.7 482.7C513.7 482.7 520.3 484.3 520.3 484.3C520.3 484.3 520.3 482.7 520.3 482.7C520.3 482.7 513.7 482.7 513.7 482.7ZM510.3 482.7C510.3 482.7 508.7 486.3 508.7 486.3C508.7 486.3 511.3 484.3 511.3 484.3C511.3 484.3 510.3 482.7 510.3 482.7ZM506.3 479.7C506.3 479.7 504.7 479.7 504.7 479.7C504.7 479.7 504.7 481.3 504.7 481.3C504.7 481.3 506.3 479.7 506.3 479.7ZM521.3 468.7C521.3 468.7 519.7 468.7 519.7 468.7C519.7 468.7 519.7 470.3 519.7 470.3C519.7 470.3 521.3 468.7 521.3 468.7Z"/><path id="plant_rear_cabinet_right_foliage_right__p03993" fill="#01060a" d="M513.3 494.7C513.3 494.7 509.7 493.7 509.7 493.7C509.7 493.7 509.3 494.7 509.3 494.7C509.3 494.7 500.7 495.3 500.7 495.3C500.7 495.3 513.3 494.7 513.3 494.7ZM513.3 479.7C511.6 481 510.7 481.1 510.7 483.3C510.7 483.3 513.3 479.7 513.3 479.7ZM508.3 475.7C506.6 477 505.7 477.1 505.7 479.3C505.7 479.3 508.3 475.7 508.3 475.7Z"/></g></svg>