<svg xmlns="http://www.w3.org/2000/svg" width="1648" height="928" viewBox="0 0 1648 928"><title>ThatDeveloperGuy — Cybersecurity — rive-import — threat_step_respond_icon</title><g id="threat_step_respond_icon"><path id="threat_step_respond_icon__p01177" fill="#78f2b9" d="M729.3 357.7C729.3 357.7 726.7 358.7 726.7 358.7C726.7 358.7 726.7 362.3 726.7 362.3C728.8 361 728.7 360 729.3 357.7ZM737.7 355.7C737.7 355.7 737.7 357.3 737.7 357.3C737.7 357.3 742.3 359.3 742.3 359.3C740.8 357.5 740.1 355.7 737.7 355.7Z"/><path id="threat_step_respond_icon__p01178" fill="#40f48b" d="M742.3 359.7C742.3 359.7 740.7 359.7 740.7 359.7C744.8 363.8 731.3 377 727.3 362.7C727.2 363.7 726.3 366.4 726.7 367.3C729.5 374.5 741.5 372 743.3 365.3C743.6 364.1 742.5 361 742.3 359.7ZM728.7 356.7C728.7 356.7 729.7 358.3 729.7 358.3C732 356.7 734.9 354.9 737.3 357.3C737.3 357.3 737.3 354.7 737.3 354.7C733.6 354.7 731.8 354.6 728.7 356.7Z"/><path id="threat_step_respond_icon__p01179" fill="#79b8b7" d="M738.3 361.7C738.3 361.7 737.3 362.7 737.3 362.7C737.3 362.7 734.7 361.7 734.7 361.7C734.7 361.7 733.7 365.3 733.7 365.3C733.7 365.3 735.3 365.3 735.3 365.3C735.3 365.3 735.7 363.3 735.7 363.3C735.7 363.3 737.3 364.3 737.3 364.3C737.3 364.3 738.3 361.7 738.3 361.7Z"/><path id="threat_step_respond_icon__p01180" fill="#4aca8a" d="M732.7 371.7C732.7 371.7 732.7 372.3 732.7 372.3C732.7 372.3 736.3 372.3 736.3 372.3C736.3 372.3 736.3 371.7 736.3 371.7C736.3 371.7 732.7 371.7 732.7 371.7ZM741.3 368.7C741.3 368.7 740.7 368.7 740.7 368.7C740.7 369.5 740.5 369.7 739.7 369.7C739.7 370.5 739.5 370.7 738.7 370.7C738.7 370.7 738.7 371.3 738.7 371.3C738.7 371.3 739.3 371.3 739.3 371.3C739.3 370.5 739.5 370.3 740.3 370.3C740.3 369.5 740.5 369.3 741.3 369.3C741.3 369.3 741.3 368.7 741.3 368.7ZM727.7 361.7C727.7 361.7 727.7 364.3 727.7 364.3C727.7 364.3 728.3 364.3 728.3 364.3C728.3 364.3 728.3 361.7 728.3 361.7C728.3 361.7 727.7 361.7 727.7 361.7ZM740.7 360.7C740.7 360.7 740.7 363.3 740.7 363.3C740.7 363.3 741.3 363.3 741.3 363.3C741.3 363.3 741.3 360.7 741.3 360.7C741.3 360.7 740.7 360.7 740.7 360.7ZM725.7 360.7C725.7 360.7 725.7 365.3 725.7 365.3C725.7 365.3 726.3 365.3 726.3 365.3C726.3 365.3 726.3 360.7 726.3 360.7C726.3 360.7 725.7 360.7 725.7 360.7ZM742.7 359.7C742.7 359.7 742.7 363.3 742.7 363.3C742.7 363.3 743.3 363.3 743.3 363.3C743.3 363.3 743.3 359.7 743.3 359.7C743.3 359.7 742.7 359.7 742.7 359.7ZM732.7 356.7C732.7 356.7 732.7 357.3 732.7 357.3C732.7 357.3 736.3 357.3 736.3 357.3C736.3 357.3 736.3 356.7 736.3 356.7C736.3 356.7 732.7 356.7 732.7 356.7Z"/><path id="threat_step_respond_icon__p01182" fill="#45a178" d="M726.7 367.7C726.7 367.7 726.7 368.3 726.7 368.3C726.7 368.3 727.3 368.3 727.3 368.3C727.3 368.3 727.7 369.3 727.7 369.3C727.7 369.3 728.3 369.3 728.3 369.3C728.3 369.3 728.7 370.3 728.7 370.3C728.7 370.3 729.3 370.3 729.3 370.3C729.3 370.3 729.3 369.7 729.3 369.7C729.3 369.7 728.7 369.7 728.7 369.7C728.7 369.7 728.3 368.7 728.3 368.7C728.3 368.7 727.7 368.7 727.7 368.7C727.7 368.7 727.3 367.7 727.3 367.7C727.3 367.7 726.7 367.7 726.7 367.7ZM740.3 364.7C740.3 364.7 739.7 364.7 739.7 364.7C739.7 364.7 739.7 365.3 739.7 365.3C739.7 365.3 738.7 365.7 738.7 365.7C738.7 365.7 738.7 366.3 738.7 366.3C738.7 366.3 737.7 366.7 737.7 366.7C737.7 366.7 737.7 367.3 737.7 367.3C737.7 367.3 738.3 367.3 738.3 367.3C738.3 367.3 738.3 366.7 738.3 366.7C738.3 366.7 739.3 366.3 739.3 366.3C739.3 366.3 739.3 365.7 739.3 365.7C739.3 365.7 740.3 365.3 740.3 365.3C740.3 365.3 740.3 364.7 740.3 364.7ZM729.3 355.7C729.3 355.7 728.7 355.7 728.7 355.7C728.7 355.7 728.7 356.3 728.7 356.3C728.7 356.3 727.7 356.7 727.7 356.7C727.7 356.7 727.7 357.3 727.7 357.3C727.7 357.3 726.7 357.7 726.7 357.7C726.7 357.7 726.7 358.3 726.7 358.3C726.7 358.3 727.3 358.3 727.3 358.3C727.3 358.3 727.3 357.7 727.3 357.7C727.3 357.7 728.3 357.3 728.3 357.3C728.3 357.3 728.3 356.7 728.3 356.7C728.3 356.7 729.3 356.3 729.3 356.3C729.3 356.3 729.3 355.7 729.3 355.7Z"/><path id="threat_step_respond_icon__p01183" fill="#5e6f90" d="M735.7 364.7C735.7 364.7 736.7 366.3 736.7 366.3C736.7 366.3 738.3 365.3 738.3 365.3C738.3 365.3 735.7 364.7 735.7 364.7ZM734.7 361.3C734.7 361.3 737.3 359.7 737.3 359.7C737.3 359.7 734.7 359.7 734.7 359.7C734.7 359.7 734.7 361.3 734.7 361.3Z"/><path id="threat_step_respond_icon__p01184" fill="#2f7e6c" d="M732.7 368.7C732.7 368.7 732.7 369.3 732.7 369.3C732.7 369.3 735.3 369.3 735.3 369.3C735.3 369.3 735.3 368.7 735.3 368.7C735.3 368.7 732.7 368.7 732.7 368.7ZM740.3 362.7C740.3 362.7 737.7 366.3 737.7 366.3C739.4 365 740.3 364.9 740.3 362.7ZM739.7 355.7C739.7 355.7 739.7 356.3 739.7 356.3C739.7 356.3 740.3 356.3 740.3 356.3C740.3 356.3 740.7 357.3 740.7 357.3C740.7 357.3 741.3 357.3 741.3 357.3C741.3 357.3 741.7 358.3 741.7 358.3C741.7 358.3 742.3 358.3 742.3 358.3C742.3 358.3 742.3 357.7 742.3 357.7C742.3 357.7 741.7 357.7 741.7 357.7C741.7 357.7 741.3 356.7 741.3 356.7C741.3 356.7 740.7 356.7 740.7 356.7C740.7 356.7 740.3 355.7 740.3 355.7C740.3 355.7 739.7 355.7 739.7 355.7ZM732.7 353.7C732.7 353.7 732.7 354.3 732.7 354.3C732.7 354.3 736.3 354.3 736.3 354.3C736.3 354.3 736.3 353.7 736.3 353.7C736.3 353.7 732.7 353.7 732.7 353.7Z"/><path id="threat_step_respond_icon__p01185" fill="#335b61" d="M742.3 368.7C742.3 368.7 741.7 368.7 741.7 368.7C741.7 368.7 741.7 369.3 741.7 369.3C741.7 369.3 740.7 369.7 740.7 369.7C740.7 369.7 740.7 370.3 740.7 370.3C740.7 370.3 739.7 370.7 739.7 370.7C739.7 370.7 739.7 371.3 739.7 371.3C739.7 371.3 740.3 371.3 740.3 371.3C740.3 371.3 740.3 370.7 740.3 370.7C740.3 370.7 741.3 370.3 741.3 370.3C741.3 370.3 741.3 369.7 741.3 369.7C741.3 369.7 742.3 369.3 742.3 369.3C742.3 369.3 742.3 368.7 742.3 368.7ZM743.7 361.7C743.7 361.7 743.7 364.3 743.7 364.3C743.7 364.3 744.3 364.3 744.3 364.3C744.3 364.3 744.3 361.7 744.3 361.7C744.3 361.7 743.7 361.7 743.7 361.7ZM728.7 364.3C728.7 364.3 729.7 361.3 729.7 361.3C729.7 361.3 730.7 363.3 730.7 363.3C733.1 363.3 733.5 361.3 734.7 359.3C734.7 359.3 737.7 359.7 737.7 359.7C737.7 359.7 735.7 360.7 735.7 360.7C735.7 360.7 735.7 362.3 735.7 362.3C735.7 362.3 737.7 360.3 737.7 360.3C737.7 360.3 739.7 361.7 739.7 361.7C739.7 361.7 738.7 364.3 738.7 364.3C740.5 362 740.1 361.5 739.3 358.7C732.9 357.7 730.2 357.4 728.7 364.3Z"/><path id="threat_step_respond_icon__p01186" fill="#3c4564" d="M729.7 361.7C729.7 366.6 730 368.3 735.3 368.3C736.1 366.2 736.5 365.6 738.3 364.3C738.3 364.3 737.7 363.7 737.7 363.7C734.7 368 732.1 364.9 729.7 361.7ZM724.7 360.7C724.7 360.7 724.7 365.3 724.7 365.3C724.7 365.3 725.3 365.3 725.3 365.3C725.3 365.3 725.3 360.7 725.3 360.7C725.3 360.7 724.7 360.7 724.7 360.7Z"/><path id="threat_step_respond_icon__p01188" fill="#222c38" d="M726.7 368.7C726.7 368.7 726.7 369.3 726.7 369.3C726.7 369.3 727.3 369.3 727.3 369.3C727.3 369.3 727.7 370.3 727.7 370.3C727.7 370.3 728.3 370.3 728.3 370.3C728.3 370.3 728.7 371.3 728.7 371.3C728.7 371.3 729.3 371.3 729.3 371.3C729.3 371.3 729.3 370.7 729.3 370.7C729.3 370.7 728.7 370.7 728.7 370.7C728.7 370.7 728.3 369.7 728.3 369.7C728.3 369.7 727.7 369.7 727.7 369.7C727.7 369.7 727.3 368.7 727.3 368.7C727.3 368.7 726.7 368.7 726.7 368.7Z"/><path id="threat_step_respond_icon__p01189" fill="#2b1d62" d="M746.3 364.7C743.8 367.7 740.6 373.1 736.3 373.7C730.3 374.5 726.3 370.4 724.3 365.7C724.3 365.7 723.7 367.3 723.7 367.3C723.7 367.3 724.7 367.7 724.7 367.7C724.7 375.4 735.6 378.5 741.3 374.3C744.9 371.6 745.5 368.9 746.3 364.7ZM734.7 351.7C734.7 351.7 741.7 355.7 741.7 355.7C741.7 358.6 744.6 361.1 746.3 363.3C746.3 357 741 351.7 734.7 351.7Z"/><path id="threat_step_respond_icon__p01190" fill="#262046" d="M732.7 372.7C732.7 372.7 732.7 373.3 732.7 373.3C732.7 373.3 736.3 373.3 736.3 373.3C736.3 373.3 736.3 372.7 736.3 372.7C736.3 372.7 732.7 372.7 732.7 372.7ZM729.3 354.7C729.3 354.7 728.7 354.7 728.7 354.7C728.7 354.7 728.7 355.3 728.7 355.3C728.7 355.3 727.7 355.7 727.7 355.7C727.7 355.7 727.7 356.3 727.7 356.3C727.7 356.3 726.7 356.7 726.7 356.7C726.7 356.7 726.7 357.3 726.7 357.3C726.7 357.3 725.7 357.7 725.7 357.7C725.7 357.7 725.7 358.3 725.7 358.3C725.7 358.3 726.3 358.3 726.3 358.3C726.3 358.3 726.3 357.7 726.3 357.7C726.3 357.7 727.3 357.3 727.3 357.3C727.3 357.3 727.3 356.7 727.3 356.7C727.3 356.7 728.3 356.3 728.3 356.3C728.3 356.3 728.3 355.7 728.3 355.7C728.3 355.7 729.3 355.3 729.3 355.3C729.3 355.3 729.3 354.7 729.3 354.7Z"/><path id="threat_step_respond_icon__p01191" fill="#241c56" d="M745.3 361.7C744.8 364.5 744.3 366 742.7 368.3C742.7 368.3 746.3 364.3 746.3 364.3C746.3 364.3 745.3 361.7 745.3 361.7ZM724.7 358.7C724.7 358.7 723.7 365.3 723.7 365.3C723.7 365.3 725.3 366.3 725.3 366.3C723.5 364.5 724.6 361.1 724.7 358.7ZM736.3 352.7C731.8 350.5 728.8 354.4 725.7 357.3C729.5 354.3 731.4 353.2 736.3 352.7Z"/></g></svg>