<svg xmlns="http://www.w3.org/2000/svg" width="1648" height="928" viewBox="0 0 1648 928"><title>ThatDeveloperGuy — Government Solutions — rive-import — conference_chair_left_near_structure</title><g id="conference_chair_left_near_structure"><path id="conference_chair_left_near_structure__p02100" fill="#9e95c7" d="M677.7 529.7C677.7 529.7 677.7 530.3 677.7 530.3C677.7 530.3 685.3 530.3 685.3 530.3C685.3 530.3 685.3 529.7 685.3 529.7C685.3 529.7 677.7 529.7 677.7 529.7Z"/><path id="conference_chair_left_near_structure__p02101" fill="#8c7fbc" d="M664.7 532.3C667.9 529.1 672.9 529.9 677.3 529.7C672.5 529.7 667.7 528.4 664.7 532.3ZM679.7 528.7C679.7 528.7 679.7 529.3 679.7 529.3C679.7 529.3 685.3 529.3 685.3 529.3C685.3 529.3 685.3 528.7 685.3 528.7C685.3 528.7 679.7 528.7 679.7 528.7Z"/><path id="conference_chair_left_near_structure__p02102" fill="#6f699a" d="M717.7 540.7C717.7 540.7 716.7 547.3 716.7 547.3C716.7 547.3 719.3 547.3 719.3 547.3C719.3 547.3 717.7 540.7 717.7 540.7ZM666.7 538.7C666.7 538.7 665.7 547.3 665.7 547.3C665.7 547.3 670.3 547.3 670.3 547.3C670.3 547.3 670.3 538.7 670.3 538.7C670.3 538.7 666.7 538.7 666.7 538.7ZM664.7 530.7C664.7 530.7 680.3 531.3 680.3 531.3C680.3 531.3 666.7 530.7 666.7 530.7C666.7 530.7 666.3 529.7 666.3 529.7C666.3 529.7 664.7 530.7 664.7 530.7ZM676.7 528.7C676.7 528.7 676.7 529.3 676.7 529.3C676.7 529.3 679.3 529.3 679.3 529.3C679.3 529.3 679.3 528.7 679.3 528.7C679.3 528.7 676.7 528.7 676.7 528.7Z"/><path id="conference_chair_left_near_structure__p02103" fill="#5a459b" d="M698.7 546.7C698.7 546.7 698.7 547.3 698.7 547.3C698.7 547.3 713.3 547.3 713.3 547.3C713.3 547.3 713.3 546.7 713.3 546.7C713.3 546.7 698.7 546.7 698.7 546.7Z"/><path id="conference_chair_left_near_structure__p02104" fill="#514b73" d="M717.7 538.7C718.2 541.7 718.4 543.9 720.3 546.3C720.3 546.3 721.3 538.7 721.3 538.7C721.3 538.7 720.3 539.7 720.3 539.7C720.3 539.7 717.7 538.7 717.7 538.7ZM667.3 537.7C665.1 539.1 665.7 539.8 665.7 542.3C665.7 542.3 667.3 537.7 667.3 537.7ZM733.3 532.7C733.3 532.7 731.7 532.7 731.7 532.7C731.7 532.7 730.7 540.3 730.7 540.3C732.6 537.9 732.8 535.7 733.3 532.7ZM708.7 532.7C708.7 532.7 708.7 533.3 708.7 533.3C708.7 533.3 720.3 533.3 720.3 533.3C720.3 533.3 720.3 532.7 720.3 532.7C720.3 532.7 708.7 532.7 708.7 532.7ZM686.3 531.7C683.3 528.7 670.1 531.5 665.7 531.7C665.7 531.7 665.7 533.3 665.7 533.3C665.7 533.3 668.3 533.3 668.3 533.3C668.3 533.3 668.7 532.3 668.7 532.3C668.7 532.3 686.3 531.7 686.3 531.7Z"/><path id="conference_chair_left_near_structure__p02105" fill="#3c345c" d="M665.7 538.3C665.7 538.3 667.3 537.3 667.3 537.3C667.3 537.3 667.7 538.3 667.7 538.3C667.7 538.3 670.7 538.7 670.7 538.7C670.7 538.7 671.3 543.3 671.3 543.3C671.3 543.3 671.3 535.7 671.3 535.7C668.8 536.2 667.1 536.1 665.7 538.3ZM738.3 532.7C736.1 532.7 737 532.2 735.7 534.3C737.9 534.3 737 534.8 738.3 532.7ZM715.7 533.7C715.7 533.7 720.7 536.7 720.7 536.7C720.7 536.7 719.7 539.3 719.7 539.3C719.7 539.3 722.3 538.3 722.3 538.3C722.3 538.3 721.3 532.7 721.3 532.7C719.8 534.2 717.8 533.7 715.7 533.7ZM690.7 532.7C690.7 532.7 690.7 533.3 690.7 533.3C690.7 533.3 708.3 533.3 708.3 533.3C708.3 533.3 708.3 532.7 708.3 532.7C708.3 532.7 690.7 532.7 690.7 532.7ZM668.7 532.7C668.7 532.7 668.7 533.3 668.7 533.3C668.7 533.3 677.3 533.3 677.3 533.3C677.3 533.3 677.3 532.7 677.3 532.7C677.3 532.7 668.7 532.7 668.7 532.7ZM663.7 532.7C665 534.8 664.1 534.3 666.3 534.3C666.3 534.3 663.7 532.7 663.7 532.7ZM671.7 528.7C671.7 528.7 671.7 529.3 671.7 529.3C671.7 529.3 674.3 529.3 674.3 529.3C674.3 529.3 674.3 528.7 674.3 528.7C674.3 528.7 671.7 528.7 671.7 528.7Z"/><path id="conference_chair_left_near_structure__p02106" fill="#402f7d" d="M722.7 546.7C722.7 546.7 722.7 547.3 722.7 547.3C722.7 547.3 740.3 547.3 740.3 547.3C740.3 547.3 740.3 546.7 740.3 546.7C740.3 546.7 722.7 546.7 722.7 546.7ZM693.7 546.7C693.7 546.7 693.7 547.3 693.7 547.3C693.7 547.3 698.3 547.3 698.3 547.3C698.3 547.3 698.3 546.7 698.3 546.7C698.3 546.7 693.7 546.7 693.7 546.7ZM729.7 539.7C729.7 539.7 729.7 542.3 729.7 542.3C729.7 542.3 731.3 542.3 731.3 542.3C731.3 540.1 731.8 541 729.7 539.7ZM715.3 538.7C712.7 539.3 709.1 539.5 706.7 540.7C705.8 541.2 705.3 542.3 704.3 542.7C702 543.6 702.4 541.5 700.7 544.3C700.7 544.3 703.3 544.3 703.3 544.3C703.3 544.3 703.7 543.3 703.7 543.3C703.7 543.3 714.3 543.3 714.3 543.3C714.3 543.3 715.3 538.7 715.3 538.7ZM738.3 537.7C733.4 537.7 733.7 538.8 733.7 543.3C733.7 543.3 737.3 542.3 737.3 542.3C737.3 542.3 738.3 537.7 738.3 537.7ZM727.3 537.7C724.2 538.9 724.4 540.1 723.7 543.3C723.7 543.3 727.3 542.3 727.3 542.3C727.3 542.3 727.3 537.7 727.3 537.7ZM671.7 519.7C672.9 522.1 673.7 523.6 673.7 526.3C673.7 526.3 684.3 526.3 684.3 526.3C684.3 526.3 684.3 519.7 684.3 519.7C684.3 519.7 671.7 519.7 671.7 519.7ZM666.7 519.7C666.7 519.7 666.7 520.3 666.7 520.3C666.7 520.3 669.3 520.3 669.3 520.3C669.3 520.3 669.3 519.7 669.3 519.7C669.3 519.7 666.7 519.7 666.7 519.7ZM652.7 519.7C652.7 519.7 657.3 537.3 657.3 537.3C657.3 537.3 656.3 525.7 656.3 525.7C654.4 525 654.6 521.6 654.3 519.7C654.3 519.7 652.7 519.7 652.7 519.7Z"/><path id="conference_chair_left_near_structure__p02107" fill="#32295a" d="M740.7 546.7C740.7 546.7 740.7 547.3 740.7 547.3C740.7 547.3 743.3 547.3 743.3 547.3C743.3 547.3 743.3 546.7 743.3 546.7C743.3 546.7 740.7 546.7 740.7 546.7ZM664.7 544.7C664.7 544.7 664.7 547.3 664.7 547.3C664.7 547.3 665.3 547.3 665.3 547.3C665.3 547.3 665.3 544.7 665.3 544.7C665.3 544.7 664.7 544.7 664.7 544.7ZM703.7 543.7C703.7 543.7 703.7 544.3 703.7 544.3C703.7 544.3 714.3 544.3 714.3 544.3C714.3 544.3 714.3 543.7 714.3 543.7C714.3 543.7 703.7 543.7 703.7 543.7ZM732.7 542.7C734.1 545 735.7 544.3 738.3 544.3C738.3 544.3 732.7 542.7 732.7 542.7ZM728.7 544.3C730.9 544.3 730 544.8 731.3 542.7C731.3 542.7 730.3 543.7 730.3 543.7C730.3 543.7 728.7 542.7 728.7 542.7C728.7 542.7 728.7 544.3 728.7 544.3ZM720.3 536.7C720.3 536.7 718.7 535.7 718.7 535.7C718.7 535.7 719.7 537.3 719.7 537.3C719.7 537.3 717.7 538.3 717.7 538.3C719.9 538.3 719 538.8 720.3 536.7ZM676.7 546.3C679.4 546.3 678.8 544.8 680.7 543.3C682 542.3 684 542.2 685.3 541.3C687.8 539.6 687.6 537.5 690.3 535.7C690.3 535.7 674.7 535.7 674.7 535.7C674.7 539.9 674.8 542.5 676.7 546.3ZM677.7 532.7C677.7 532.7 677.7 533.3 677.7 533.3C677.7 533.3 690.3 533.3 690.3 533.3C690.3 533.3 690.3 532.7 690.3 532.7C690.3 532.7 677.7 532.7 677.7 532.7ZM667.7 528.7C667.7 528.7 667.7 529.3 667.7 529.3C667.7 529.3 671.3 529.3 671.3 529.3C671.3 529.3 671.3 528.7 671.3 528.7C671.3 528.7 667.7 528.7 667.7 528.7ZM656.7 519.7C658.1 522.5 658.7 524.1 658.7 527.3C658.7 527.3 659.7 527.7 659.7 527.7C659.7 527.7 659.7 532.3 659.7 532.3C659.7 532.3 660.7 532.7 660.7 532.7C660.7 532.7 660.7 547.3 660.7 547.3C660.7 547.3 663.3 547.3 663.3 547.3C663 542.9 660.9 534.8 662.3 530.7C663.6 526.8 668.2 527.3 671.3 527.3C669.8 525.8 670.3 523.8 670.3 521.7C670.3 521.7 666.3 519.7 666.3 519.7C666.3 519.7 665.3 520.7 665.3 520.7C663.4 518.8 659.3 519.7 656.7 519.7Z"/><path id="conference_chair_left_near_structure__p02108" fill="#231f3e" d="M722.7 541.7C722.7 541.7 722.7 544.3 722.7 544.3C722.7 544.3 726.3 544.3 726.3 544.3C724.1 543.8 723.7 543.7 722.7 541.7ZM704.7 537.3C707 536.2 707.8 536.6 710.3 537.3C710.3 537.3 711.3 535.7 711.3 535.7C708.4 535.7 707 535.5 704.7 537.3ZM695.7 535.7C695.7 538.1 695.7 538.3 697.7 539.7C697.7 539.7 695.7 540.7 695.7 540.7C695.7 540.7 696.7 541.7 696.7 541.7C696.7 541.7 695.7 543.3 695.7 543.3C697.8 543.3 696.9 543.7 698.3 542.3C698.3 542.3 697.3 541.3 697.3 541.3C698.7 539.9 698.3 538.7 698.3 536.7C698.3 536.7 696.7 537.7 696.7 537.7C696.7 537.7 695.7 535.7 695.7 535.7ZM682.7 534.7C682.7 534.7 682.7 535.3 682.7 535.3C682.7 535.3 692.3 535.3 692.3 535.3C692.3 535.3 692.3 534.7 692.3 534.7C692.3 534.7 682.7 534.7 682.7 534.7ZM712.7 533.7C712.7 533.7 712.7 534.3 712.7 534.3C712.7 534.3 715.3 534.3 715.3 534.3C715.3 534.3 715.3 533.7 715.3 533.7C715.3 533.7 712.7 533.7 712.7 533.7ZM657.7 533.7C657.7 533.7 657.7 541.3 657.7 541.3C657.7 541.3 658.3 541.3 658.3 541.3C658.3 541.3 658.3 533.7 658.3 533.7C658.3 533.7 657.7 533.7 657.7 533.7ZM724.7 532.7C724.7 532.7 724.7 535.3 724.7 535.3C724.7 535.3 727.3 535.3 727.3 535.3C727.3 535.3 724.7 532.7 724.7 532.7ZM659.7 532.7C659.7 532.7 659.7 544.3 659.7 544.3C659.7 544.3 660.3 544.3 660.3 544.3C660.3 544.3 660.3 532.7 660.3 532.7C660.3 532.7 659.7 532.7 659.7 532.7ZM663.7 528.7C663.7 528.7 664.3 531.3 664.3 531.3C664.3 531.3 665.3 529.7 665.3 529.7C665.3 529.7 663.7 528.7 663.7 528.7Z"/><path id="conference_chair_left_near_structure__p02109" fill="#22174c" d="M702.7 545.7C702.7 545.7 702.7 546.3 702.7 546.3C702.7 546.3 709.3 546.3 709.3 546.3C709.3 546.3 709.3 545.7 709.3 545.7C709.3 545.7 702.7 545.7 702.7 545.7ZM659.7 544.7C659.7 544.7 659.7 547.3 659.7 547.3C659.7 547.3 660.3 547.3 660.3 547.3C660.3 547.3 660.3 544.7 660.3 544.7C660.3 544.7 659.7 544.7 659.7 544.7ZM729.3 538.7C729.3 538.7 727.7 542.3 727.7 542.3C727.7 542.3 729.3 542.3 729.3 542.3C729.3 542.3 729.3 538.7 729.3 538.7ZM734.3 537.7C734.3 537.7 732.7 537.7 732.7 537.7C732.7 537.7 731.7 542.3 731.7 542.3C731.7 542.3 733.3 542.3 733.3 542.3C733.3 540.3 732.9 539.1 734.3 537.7ZM702.7 535.7C702.7 535.7 702.7 539.3 702.7 539.3C702.7 539.3 708.3 538.3 708.3 538.3C706.3 535.7 706 535.7 702.7 535.7ZM704.3 536.7C704.3 536.7 706.3 536.3 706.3 536.3C706.3 536.3 706.7 537.3 706.7 537.3C706.7 537.3 704.7 537.7 704.7 537.7C704.7 537.7 704.3 536.7 704.3 536.7ZM696.7 535.7C696.7 535.7 696.7 537.3 696.7 537.3C696.7 537.3 698.7 536.7 698.7 536.7C698.7 536.7 698.7 540.3 698.7 540.3C698.7 540.3 697.7 540.7 697.7 540.7C697.7 540.7 696.3 538.7 696.3 538.7C696.3 538.7 695.7 540.3 695.7 540.3C695.7 540.3 699.3 541.3 699.3 541.3C699.3 541.3 699.3 535.7 699.3 535.7C699.3 535.7 696.7 535.7 696.7 535.7ZM693.3 535.7C692.1 536 689.7 536 688.7 536.7C687.1 537.7 686.8 540.5 685.3 541.7C682.7 543.8 680.6 543.8 678.3 546.7C675.3 546.1 674.9 543.4 673.7 540.7C673.7 540.7 673.7 547.3 673.7 547.3C673.7 547.3 686.3 547.3 686.3 547.3C687.3 544.8 691.4 546.8 692.3 544.3C693.3 541.4 691 538 693.3 535.7Z"/><path id="conference_chair_left_near_structure__p02110" fill="#12112a" d="M722.7 545.7C722.7 545.7 722.7 546.3 722.7 546.3C722.7 546.3 737.3 546.3 737.3 546.3C737.3 546.3 737.3 545.7 737.3 545.7C737.3 545.7 722.7 545.7 722.7 545.7ZM730.7 543.7C730.7 543.7 733.3 544.3 733.3 544.3C733.3 544.3 732.3 542.7 732.3 542.7C732.3 542.7 730.7 543.7 730.7 543.7ZM728.3 542.7C728.3 542.7 726.7 544.3 726.7 544.3C726.7 544.3 728.3 544.3 728.3 544.3C728.3 544.3 728.3 542.7 728.3 542.7ZM694.7 542.7C694.7 542.7 694.7 544.3 694.7 544.3C694.7 544.3 696.3 544.3 696.3 544.3C696.3 544.3 694.7 542.7 694.7 542.7ZM671.7 541.7C671.7 541.7 673.3 547.3 673.3 547.3C673.3 544.7 674 543.1 671.7 541.7ZM657.7 541.7C657.7 541.7 657.7 545.3 657.7 545.3C657.7 545.3 658.3 545.3 658.3 545.3C658.3 545.3 658.3 541.7 658.3 541.7C658.3 541.7 657.7 541.7 657.7 541.7ZM709.3 537.7C709.3 537.7 703.7 540.3 703.7 540.3C703.7 540.3 705.3 541.3 705.3 541.3C705.3 541.3 709.3 537.7 709.3 537.7ZM692.7 536.7C692.7 536.7 692.7 539.3 692.7 539.3C692.7 539.3 693.3 539.3 693.3 539.3C693.3 539.3 693.3 536.7 693.3 536.7C693.3 536.7 692.7 536.7 692.7 536.7ZM671.7 535.7C671.7 535.7 671.7 540.3 671.7 540.3C671.7 540.3 672.3 540.3 672.3 540.3C672.3 540.3 672.3 535.7 672.3 535.7C672.3 535.7 671.7 535.7 671.7 535.7ZM697.7 534.7C697.7 534.7 699.7 535.7 699.7 535.7C699.7 538.9 700.4 540.8 697.7 542.7C697.7 542.7 698.7 545.3 698.7 545.3C698.7 545.3 694.7 546.3 694.7 546.3C694.7 546.3 702.3 546.3 702.3 546.3C702.3 546.3 702.3 544.7 702.3 544.7C700.1 544.7 700 545 698.3 543.3C700.8 540.8 700.3 539.1 700.3 535.7C700.3 535.7 697.7 534.7 697.7 534.7ZM673.7 540.3C673.7 540.3 674.7 535.3 674.7 535.3C674.7 535.3 682.3 534.7 682.3 534.7C676.2 534.7 673.7 533.6 673.7 540.3ZM712.3 533.7C710.2 533.9 702.6 533.5 701.7 535.7C701.3 536.8 701.7 539.1 701.7 540.3C701.7 540.3 702.7 535.3 702.7 535.3C702.7 535.3 711.3 535.3 711.3 535.3C711.3 535.3 711.3 537.3 711.3 537.3C711.3 537.3 712.3 533.7 712.3 533.7ZM734.7 532.7C734.7 532.7 733.7 537.3 733.7 537.3C733.7 537.3 739.3 537.3 739.3 537.3C739.3 537.3 734.7 536.7 734.7 536.7C734.7 536.7 734.7 532.7 734.7 532.7ZM725.7 532.7C725.7 532.7 727.7 534.7 727.7 534.7C727.7 534.7 725.7 536.3 725.7 536.3C725.7 536.3 729.3 538.3 729.3 538.3C729.3 538.3 730.3 532.7 730.3 532.7C730.3 532.7 725.7 532.7 725.7 532.7ZM662.7 530.7C662.7 530.7 664.3 547.3 664.3 547.3C664.8 542.5 663.7 537.4 668.3 535.3C668.3 535.3 668.3 533.7 668.3 533.7C668.3 533.7 664.7 534.7 664.7 534.7C664.7 534.7 662.7 530.7 662.7 530.7ZM685.3 525.7C683.5 527.5 680.2 527.1 677.7 527.3C679.5 529.1 682.9 528.3 685.3 528.3C685.3 528.3 684.3 527.3 684.3 527.3C684.3 527.3 685.3 525.7 685.3 525.7ZM658.3 524.7C658.3 524.7 657.7 524.7 657.7 524.7C657.7 524.7 657.7 526.3 657.7 526.3C657.7 526.3 656.7 526.7 656.7 526.7C656.7 526.7 656.7 528.3 656.7 528.3C656.7 528.3 657.3 528.3 657.3 528.3C657.3 528.3 657.3 526.7 657.3 526.7C657.3 526.7 658.3 526.3 658.3 526.3C658.3 526.3 658.3 524.7 658.3 524.7ZM684.7 519.7C684.7 519.7 684.7 524.3 684.7 524.3C684.7 524.3 685.3 524.3 685.3 524.3C685.3 524.3 685.3 519.7 685.3 519.7C685.3 519.7 684.7 519.7 684.7 519.7Z"/><path id="conference_chair_left_near_structure__p02111" fill="#060e12" d="M657.7 545.7C657.7 545.7 657.7 547.3 657.7 547.3C657.7 547.3 659.3 547.3 659.3 547.3C659.3 547.3 657.7 545.7 657.7 545.7ZM737.7 546.3C740.2 546.3 740.9 546.9 742.3 544.7C742.3 544.7 737.7 544.7 737.7 544.7C737.7 544.7 737.7 546.3 737.7 546.3ZM702.7 544.7C702.7 544.7 702.7 545.3 702.7 545.3C702.7 545.3 709.3 545.3 709.3 545.3C709.3 545.3 709.3 544.7 709.3 544.7C709.3 544.7 702.7 544.7 702.7 544.7ZM694.3 545.7C694.3 545.7 691.7 544.7 691.7 544.7C690.4 546.6 689.9 546.8 687.7 547.3C687.7 547.3 694.3 545.7 694.3 545.7ZM701.7 542.3C701.7 542.3 704.3 540.7 704.3 540.7C704.3 540.7 701.7 540.7 701.7 540.7C701.7 540.7 701.7 542.3 701.7 542.3ZM723.3 539.7C723.3 539.7 721.7 541.3 721.7 541.3C721.7 541.3 723.3 541.3 723.3 541.3C723.3 541.3 723.3 539.7 723.3 539.7ZM694.7 539.7C694.7 539.7 694.7 542.3 694.7 542.3C694.7 542.3 695.3 542.3 695.3 542.3C695.3 542.3 695.3 539.7 695.3 539.7C695.3 539.7 694.7 539.7 694.7 539.7ZM672.7 539.7C672.7 539.7 671.7 541.3 671.7 541.3C671.7 541.3 673.3 542.3 673.3 542.3C673.3 542.3 672.7 539.7 672.7 539.7ZM711.3 537.7C709.1 537.7 710 537.2 708.7 539.3C710.9 539.3 710 539.8 711.3 537.7ZM718.3 536.7C718.3 536.7 715.7 537.7 715.7 537.7C715.7 540 716.4 542.6 714.7 544.3C717 542.9 716.6 539.3 718.3 536.7ZM711.7 534.7C711.7 534.7 713.3 536.3 713.3 536.3C713.3 536.3 713.3 534.7 713.3 534.7C713.3 534.7 711.7 534.7 711.7 534.7ZM724.3 533.7C722.2 535 722.7 534.1 722.7 536.3C722.7 536.3 724.3 533.7 724.3 533.7ZM699.7 535.3C699.7 535.3 701.3 536.3 701.3 536.3C702.6 534.4 703.1 534.2 705.3 533.7C702.7 533.7 701.1 533 699.7 535.3ZM687.7 533.7C687.7 533.7 687.7 534.3 687.7 534.3C687.7 534.3 690.3 534.3 690.3 534.3C690.3 534.3 690.3 533.7 690.3 533.7C690.3 533.7 687.7 533.7 687.7 533.7ZM668.7 533.7C668.7 533.7 668.7 535.3 668.7 535.3C668.7 535.3 672.3 535.3 672.3 535.3C672.3 535.3 672.3 533.7 672.3 533.7C672.3 533.7 668.7 533.7 668.7 533.7ZM740.3 532.7C738.4 534.6 737.4 535.7 734.7 536.3C734.7 536.3 739.3 536.3 739.3 536.3C739.3 536.3 740.3 532.7 740.3 532.7ZM666.3 528.7C664.1 528.7 665 528.2 663.7 530.3C663.7 530.3 666.3 528.7 666.3 528.7ZM670.7 520.7C670.7 520.7 670.7 523.3 670.7 523.3C670.7 523.3 672.3 523.3 672.3 523.3C672.3 523.3 670.7 520.7 670.7 520.7Z"/><path id="conference_chair_left_near_structure__p02112" fill="#000405" d="M741.7 545.7C741.7 545.7 749.3 547.3 749.3 547.3C746.5 545.8 744.8 545.7 741.7 545.7ZM709.7 544.7C709.7 544.7 709.7 545.3 709.7 545.3C709.7 545.3 715.3 545.3 715.3 545.3C715.3 545.3 715.3 544.7 715.3 544.7C715.3 544.7 709.7 544.7 709.7 544.7ZM721.7 541.7C721.7 541.7 721.7 546.3 721.7 546.3C724.3 543.7 733.6 545.3 737.3 545.3C737.3 545.3 732.7 544.7 732.7 544.7C732.7 544.7 732.3 543.7 732.3 543.7C730.3 545.7 725.5 544.7 722.7 544.7C722.7 544.7 721.7 541.7 721.7 541.7ZM701.3 536.7C701.3 536.7 699.7 542.3 699.7 542.3C699.7 542.3 701.3 542.3 701.3 542.3C701.3 542.3 701.3 536.7 701.3 536.7ZM717.3 535.7C717.3 535.7 713.7 534.7 713.7 534.7C713.7 534.7 713.7 536.3 713.7 536.3C713.7 536.3 711.7 536.7 711.7 536.7C711.7 536.7 711.7 538.3 711.7 538.3C713.8 536.2 715.6 538.5 717.3 535.7ZM690.7 533.7C690.7 533.7 693.7 534.7 693.7 534.7C693.7 534.7 692.7 545.3 692.7 545.3C692.7 545.3 698.3 545.3 698.3 545.3C698.3 545.3 698.3 543.7 698.3 543.7C696.9 545.1 696.2 544.6 694.3 544.3C694.3 544.3 694.3 539.7 694.3 539.7C694.3 539.7 695.3 539.3 695.3 539.3C695.3 534.9 696 534.4 700.3 533.7C700.3 533.7 690.7 533.7 690.7 533.7ZM672.7 539.3C673 537.6 672.8 535.2 674.7 534.3C677.7 532.9 684 533.9 687.3 533.7C687.3 533.7 672.7 533.7 672.7 533.7C672.7 533.7 672.7 539.3 672.7 539.3ZM722.7 532.7C723.9 535.2 722.7 536.6 723.3 539.3C723.3 539.3 726.3 536.7 726.3 536.7C723.7 536.2 723.8 535.1 722.7 532.7ZM658.7 532.7C658.7 532.7 658.7 546.3 658.7 546.3C658.7 546.3 659.3 546.3 659.3 546.3C659.3 546.3 659.3 532.7 659.3 532.7C659.3 532.7 658.7 532.7 658.7 532.7ZM685.7 524.7C685.7 524.7 685.7 528.3 685.7 528.3C685.7 528.3 686.3 528.3 686.3 528.3C686.3 528.3 686.3 524.7 686.3 524.7C686.3 524.7 685.7 524.7 685.7 524.7ZM676.3 527.7C676.3 527.7 673.7 527.7 673.7 527.7C673.7 527.7 671.7 523.7 671.7 523.7C671.7 523.7 671.3 527.7 671.3 527.7C671.3 527.7 666.7 528.3 666.7 528.3C666.7 528.3 676.3 527.7 676.3 527.7ZM655.7 519.7C655.7 523.9 657.7 527.1 658.3 531.3C658.3 531.3 658.3 526.7 658.3 526.7C658.3 526.7 657.3 526.3 657.3 526.3C657.3 523.5 657 522.2 655.7 519.7Z"/></g></svg>