<svg xmlns="http://www.w3.org/2000/svg" width="1648" height="928" viewBox="0 0 1648 928"><title>ThatDeveloperGuy — Government Solutions — rive-import — plant_window_tall_foliage_right</title><g id="plant_window_tall_foliage_right"><path id="plant_window_tall_foliage_right__p03587" fill="#f5f6fc" d="M1276.3 425.7C1276.3 425.7 1275.7 425.7 1275.7 425.7C1275.7 427 1276 427.7 1274.7 427.7C1274.7 429 1275 429.7 1273.7 429.7C1273.7 429.7 1273.7 431.3 1273.7 431.3C1273.7 431.3 1274.3 431.3 1274.3 431.3C1274.3 430 1274 429.3 1275.3 429.3C1275.3 428 1275 427.3 1276.3 427.3C1276.3 427.3 1276.3 425.7 1276.3 425.7ZM1287.3 413.7C1287.3 413.7 1286.7 413.7 1286.7 413.7C1286.7 414.5 1286.5 414.7 1285.7 414.7C1285.7 415.5 1285.5 415.7 1284.7 415.7C1284.7 416.5 1284.5 416.7 1283.7 416.7C1283.7 416.7 1283.7 417.3 1283.7 417.3C1283.7 417.3 1284.3 417.3 1284.3 417.3C1284.3 416.5 1284.5 416.3 1285.3 416.3C1285.3 415.5 1285.5 415.3 1286.3 415.3C1286.3 414.5 1286.5 414.3 1287.3 414.3C1287.3 414.3 1287.3 413.7 1287.3 413.7ZM1292.3 410.7C1290.4 411.4 1289.9 411.4 1288.7 413.3C1290.6 412.6 1291.1 412.6 1292.3 410.7ZM1276.3 398.7C1273.6 400.8 1273.4 402 1272.7 405.3C1272.7 405.3 1276.3 398.7 1276.3 398.7ZM1288.3 386.7C1285.7 386.7 1284.3 389.4 1282.7 391.3C1282.7 391.3 1288.3 386.7 1288.3 386.7Z"/><path id="plant_window_tall_foliage_right__p03588" fill="#eae9f8" d="M1272.3 408.7C1270.2 410 1270.7 409.1 1270.7 411.3C1270.7 411.3 1272.3 408.7 1272.3 408.7Z"/><path id="plant_window_tall_foliage_right__p03590" fill="#d2d1ee" d="M1285.3 389.7C1285.3 389.7 1284.7 389.7 1284.7 389.7C1284.7 390.5 1284.5 390.7 1283.7 390.7C1283.7 391.5 1283.5 391.7 1282.7 391.7C1282.7 391.7 1282.7 392.3 1282.7 392.3C1282.7 392.3 1283.3 392.3 1283.3 392.3C1283.3 391.5 1283.5 391.3 1284.3 391.3C1284.3 390.5 1284.5 390.3 1285.3 390.3C1285.3 390.3 1285.3 389.7 1285.3 389.7Z"/><path id="plant_window_tall_foliage_right__p03593" fill="#71bba4" d="M1271.7 434.7C1271.7 434.7 1272.7 435.7 1272.7 435.7C1272.7 435.7 1271.7 436.7 1271.7 436.7C1271.7 436.7 1272.3 438.3 1272.3 438.3C1272.3 438.3 1273.3 435.7 1273.3 435.7C1273.3 435.7 1271.7 434.7 1271.7 434.7Z"/><path id="plant_window_tall_foliage_right__p03595" fill="#4c8f84" d="M1269.7 411.7C1269.7 411.7 1269.7 413.3 1269.7 413.3C1269.7 413.3 1271.3 413.3 1271.3 413.3C1271.3 413.3 1269.7 411.7 1269.7 411.7ZM1267.7 404.7C1267.7 404.7 1267.7 407.3 1267.7 407.3C1267.7 407.3 1269.3 407.3 1269.3 407.3C1269.3 407.3 1267.7 404.7 1267.7 404.7ZM1265.7 393.7C1265.7 393.7 1265.7 398.3 1265.7 398.3C1265.7 398.3 1266.3 398.3 1266.3 398.3C1266.3 398.3 1266.3 393.7 1266.3 393.7C1266.3 393.7 1265.7 393.7 1265.7 393.7Z"/><path id="plant_window_tall_foliage_right__p03596" fill="#279f3b" d="M1264.7 419.7C1264.7 422.8 1263.6 427.6 1266.3 429.3C1266.3 425.7 1267 422.6 1264.7 419.7ZM1303.7 413.7C1306.8 414.6 1309 415 1311.3 417.3C1308.5 414.8 1307.6 413.7 1303.7 413.7ZM1290.7 396.7C1293.8 398.3 1295.8 398.3 1299.3 398.3C1297 397.3 1295.7 396.8 1294.3 394.7C1294.3 394.7 1290.7 396.7 1290.7 396.7ZM1295.7 387.3C1295.7 387.3 1301.3 388.3 1301.3 388.3C1301.3 388.3 1301.7 387.3 1301.7 387.3C1301.7 387.3 1304.3 387.3 1304.3 387.3C1305.1 385.4 1308.4 385.2 1310.3 384.7C1304.6 384.7 1300.8 384.6 1295.7 387.3Z"/><path id="plant_window_tall_foliage_right__p03598" fill="#0a8a3b" d="M1272.3 440.7C1272.3 440.7 1270.7 440.7 1270.7 440.7C1270.7 440.7 1270.7 445.3 1270.7 445.3C1270.7 445.3 1272.3 440.7 1272.3 440.7ZM1280.3 436.7C1278.2 438 1278.7 437.1 1278.7 439.3C1278.7 439.3 1280.3 436.7 1280.3 436.7ZM1264.7 428.7C1264.7 428.7 1264.7 431.3 1264.7 431.3C1264.7 431.3 1266.3 431.3 1266.3 431.3C1266.3 429.1 1266.8 430 1264.7 428.7ZM1291.7 421.3C1296.4 428.3 1297.8 421.2 1302.7 419.3C1304 418.8 1306.9 419.3 1308.3 419.3C1308.3 419.3 1308.7 420.3 1308.7 420.3C1308.7 420.3 1314.3 419.7 1314.3 419.7C1314.3 419.7 1311.3 415.7 1311.3 415.7C1311.3 415.7 1309.7 416.7 1309.7 416.7C1308.6 414 1304.4 416.4 1303.3 413.7C1303.3 413.7 1305.3 412.7 1305.3 412.7C1302.7 412.7 1298.6 411.8 1296.7 413.7C1298.6 416.7 1301.5 414.2 1303.7 417.3C1301.8 417.6 1301.1 418.1 1299.7 416.7C1299.7 416.7 1299.3 417.7 1299.3 417.7C1295.4 417.7 1294.5 418.8 1291.7 421.3ZM1310.3 416.7C1310.3 416.7 1311.3 416.3 1311.3 416.3C1311.3 416.3 1311.7 417.3 1311.7 417.3C1311.7 417.3 1310.7 417.7 1310.7 417.7C1310.7 417.7 1310.3 416.7 1310.3 416.7ZM1265.7 398.7C1265.7 398.7 1265.7 406.3 1265.7 406.3C1265.7 406.3 1266.3 406.3 1266.3 406.3C1266.3 406.3 1266.3 398.7 1266.3 398.7C1266.3 398.7 1265.7 398.7 1265.7 398.7ZM1314.3 384.7C1314.3 384.7 1310.7 384.7 1310.7 384.7C1310.7 384.7 1310.3 385.7 1310.3 385.7C1306.7 385.7 1304.6 387.8 1301.3 388.7C1298.6 389.4 1297.6 386.9 1295.3 386.7C1292.9 386.4 1287.6 390.7 1286.7 392.7C1286.3 393.7 1286.7 396.2 1286.7 397.3C1286.7 397.3 1288.7 397.7 1288.7 397.7C1284.5 401.9 1289.5 403 1293.3 405.3C1295.5 403.1 1300.3 399.9 1300.3 396.7C1300.3 396.7 1298.3 396.3 1298.3 396.3C1299 394.4 1302.4 394.6 1304.3 394.3C1304.3 389.8 1310.9 387.9 1314.3 386.3C1314.3 386.3 1314.3 384.7 1314.3 384.7ZM1288.3 396.7C1288.3 396.7 1289.3 396.3 1289.3 396.3C1289.3 396.3 1289.7 397.3 1289.7 397.3C1289.7 397.3 1288.7 397.7 1288.7 397.7C1288.7 397.7 1288.3 396.7 1288.3 396.7ZM1289.3 395.7C1289.3 395.7 1290.3 395.3 1290.3 395.3C1290.3 395.3 1290.7 396.3 1290.7 396.3C1290.7 396.3 1289.7 396.7 1289.7 396.7C1289.7 396.7 1289.3 395.7 1289.3 395.7ZM1290.3 394.7C1291.9 394.4 1292 394 1293.3 395.3C1293.3 395.3 1292.3 393.7 1292.3 393.7C1292.3 393.7 1295.3 392.3 1295.3 392.3C1295.3 392.3 1294.7 395.3 1294.7 395.3C1294.7 395.3 1299.7 398.3 1299.7 398.3C1299.7 398.3 1293.7 398.7 1293.7 398.7C1293.7 398.7 1293.3 397.7 1293.3 397.7C1293.3 397.7 1290.7 397.7 1290.7 397.7C1290.7 397.7 1291.3 395.7 1291.3 395.7C1291.3 395.7 1290.3 394.7 1290.3 394.7ZM1295.3 391.7C1295.3 391.7 1296.3 391.3 1296.3 391.3C1296.3 391.3 1296.7 392.3 1296.7 392.3C1296.7 392.3 1295.7 392.7 1295.7 392.7C1295.7 392.7 1295.3 391.7 1295.3 391.7ZM1277.7 375.3C1277.7 375.3 1280.3 376.3 1280.3 376.3C1280.3 376.3 1283.3 373.3 1283.3 373.3C1283.3 373.3 1283.7 377.3 1283.7 377.3C1283.7 377.3 1289.3 377.3 1289.3 377.3C1290.2 375.1 1292.3 373.9 1292.3 371.7C1292.3 371.7 1278.7 371.7 1278.7 371.7C1278.7 371.7 1277.7 375.3 1277.7 375.3ZM1283.3 372.7C1283.3 372.7 1284.3 372.3 1284.3 372.3C1284.3 372.3 1284.7 373.3 1284.7 373.3C1284.7 373.3 1283.7 373.7 1283.7 373.7C1283.7 373.7 1283.3 372.7 1283.3 372.7ZM1264.7 371.7C1264.7 375.5 1265.2 377.1 1267.3 380.3C1267.3 380.3 1268.3 371.7 1268.3 371.7C1268.3 371.7 1264.7 371.7 1264.7 371.7Z"/><path id="plant_window_tall_foliage_right__p03599" fill="#514b73" d="M1288.3 443.7C1288.3 443.7 1287.7 443.7 1287.7 443.7C1287.7 443.7 1287.7 444.3 1287.7 444.3C1287.7 444.3 1286.7 444.7 1286.7 444.7C1286.7 444.7 1286.7 445.3 1286.7 445.3C1286.7 445.3 1285.7 445.7 1285.7 445.7C1285.7 445.7 1285.7 446.3 1285.7 446.3C1285.7 446.3 1284.7 446.7 1284.7 446.7C1284.7 446.7 1284.7 447.3 1284.7 447.3C1284.7 447.3 1283.7 447.7 1283.7 447.7C1283.7 447.7 1283.7 448.3 1283.7 448.3C1283.7 448.3 1282.7 448.7 1282.7 448.7C1282.7 448.7 1282.7 449.3 1282.7 449.3C1282.7 449.3 1283.3 449.3 1283.3 449.3C1283.3 449.3 1283.3 448.7 1283.3 448.7C1283.3 448.7 1284.3 448.3 1284.3 448.3C1284.3 448.3 1284.3 447.7 1284.3 447.7C1284.3 447.7 1285.3 447.3 1285.3 447.3C1285.3 447.3 1285.3 446.7 1285.3 446.7C1285.3 446.7 1286.3 446.3 1286.3 446.3C1286.3 446.3 1286.3 445.7 1286.3 445.7C1286.3 445.7 1287.3 445.3 1287.3 445.3C1287.3 445.3 1287.3 444.7 1287.3 444.7C1287.3 444.7 1288.3 444.3 1288.3 444.3C1288.3 444.3 1288.3 443.7 1288.3 443.7Z"/><path id="plant_window_tall_foliage_right__p03600" fill="#006933" d="M1278.3 450.7C1278.3 450.7 1276.7 454.3 1276.7 454.3C1278.7 453 1278.3 452.9 1278.3 450.7ZM1279.3 439.7C1279.3 439.7 1277.7 439.7 1277.7 439.7C1276.6 443.5 1274.7 444.4 1274.7 448.3C1274.7 448.3 1279.3 439.7 1279.3 439.7ZM1267.7 439.7C1267.7 439.7 1267.7 444.3 1267.7 444.3C1267.7 444.3 1268.3 444.3 1268.3 444.3C1268.3 444.3 1268.3 439.7 1268.3 439.7C1268.3 439.7 1267.7 439.7 1267.7 439.7ZM1286.3 438.7C1284.1 438.7 1285 438.2 1283.7 440.3C1285.9 440.3 1285 440.8 1286.3 438.7ZM1281.3 434.7C1281.3 434.7 1278.7 436.7 1278.7 436.7C1278.7 436.7 1279.7 438.3 1279.7 438.3C1279.2 436.1 1279.8 436.2 1281.3 434.7ZM1266.3 431.7C1266.3 431.7 1264.7 431.7 1264.7 431.7C1264.7 431.7 1264.7 433.3 1264.7 433.3C1264.7 433.3 1266.3 431.7 1266.3 431.7ZM1266.7 423.7C1266.7 423.7 1266.7 430.3 1266.7 430.3C1266.7 430.3 1267.3 430.3 1267.3 430.3C1267.3 430.3 1267.3 423.7 1267.3 423.7C1267.3 423.7 1266.7 423.7 1266.7 423.7ZM1298.7 416.7C1298.7 416.7 1303.3 417.3 1303.3 417.3C1303.3 417.3 1302.3 415.7 1302.3 415.7C1302.3 415.7 1298.7 416.7 1298.7 416.7ZM1297.3 412.7C1297.3 412.7 1291.7 414.7 1291.7 414.7C1291.7 416.8 1291.3 415.9 1292.7 417.3C1294.1 415.9 1295.3 416.3 1297.3 416.3C1296.4 414.4 1296.1 414.7 1297.3 412.7ZM1282.3 410.7C1280.9 412.1 1280.7 412.7 1278.7 412.7C1278.7 412.7 1278.7 416.3 1278.7 416.3C1281 416.3 1281.7 414.9 1283.3 413.3C1283.3 413.3 1282.3 410.7 1282.3 410.7ZM1274.3 409.7C1273.8 411.6 1273.6 414.9 1271.7 415.7C1271.7 415.7 1270.7 423.3 1270.7 423.3C1273.1 420.3 1272.5 416.8 1274.3 413.7C1275.4 411.8 1276.3 413.5 1276.3 410.7C1276.3 410.7 1274.3 409.7 1274.3 409.7ZM1265.7 406.7C1265.7 406.7 1265.7 409.3 1265.7 409.3C1265.7 409.3 1266.3 409.3 1266.3 409.3C1266.3 409.3 1266.3 406.7 1266.3 406.7C1266.3 406.7 1265.7 406.7 1265.7 406.7ZM1283.7 410.3C1289.7 410.3 1292 406.8 1296.3 402.7C1296.3 402.7 1292.7 405.7 1292.7 405.7C1292.7 405.7 1285.7 400.7 1285.7 400.7C1284.9 402.8 1284.5 403.4 1282.7 404.7C1282.7 404.7 1283.7 410.3 1283.7 410.3ZM1298.7 395.7C1298.7 395.7 1301.3 397.3 1301.3 397.3C1301.3 397.3 1301.3 395.7 1301.3 395.7C1301.3 395.7 1298.7 395.7 1298.7 395.7ZM1286.3 392.7C1282.8 395.9 1276.4 399 1280.7 403.3C1285 399.5 1286.3 398.5 1286.3 392.7ZM1265.7 392.7C1265.7 392.7 1267.3 397.3 1267.3 397.3C1267.3 394.8 1267.9 394.1 1265.7 392.7ZM1296.3 391.7C1293.2 392.9 1290.6 394.8 1288.7 397.3C1291.3 394.7 1294 394.6 1296.3 391.7ZM1303.7 383.7C1303.7 383.7 1303.7 384.3 1303.7 384.3C1303.7 384.3 1309.3 384.3 1309.3 384.3C1309.3 384.3 1309.3 383.7 1309.3 383.7C1309.3 383.7 1303.7 383.7 1303.7 383.7ZM1265.7 378.7C1265.7 378.7 1265.7 384.3 1265.7 384.3C1265.7 384.3 1267.3 384.3 1267.3 384.3C1267.3 381.6 1267.3 380.7 1265.7 378.7ZM1284.3 372.7C1284.3 372.7 1280.3 376.7 1280.3 376.7C1280.3 376.7 1277.3 374.7 1277.3 374.7C1274.7 376.3 1274.8 380.2 1272.7 382.7C1272.7 382.7 1273.7 385.3 1273.7 385.3C1273.7 385.3 1276.3 385.3 1276.3 385.3C1276.3 385.3 1279.7 378.3 1279.7 378.3C1279.7 378.3 1281.7 378.7 1281.7 378.7C1281.7 378.7 1280.7 381.3 1280.7 381.3C1280.7 381.3 1288.3 379.3 1288.3 379.3C1288.3 379.3 1288.3 377.7 1288.3 377.7C1288.3 377.7 1283.3 377.3 1283.3 377.3C1283.3 375.3 1282.9 374.1 1284.3 372.7Z"/><path id="plant_window_tall_foliage_right__p03601" fill="#015227" d="M1278.7 447.7C1278.7 447.7 1277.7 450.3 1277.7 450.3C1277.7 450.3 1279.3 451.3 1279.3 451.3C1279.3 451.3 1278.7 447.7 1278.7 447.7ZM1273.7 446.7C1273.7 446.7 1274.3 450.3 1274.3 450.3C1274.3 450.3 1275.3 448.7 1275.3 448.7C1275.3 448.7 1273.7 446.7 1273.7 446.7ZM1269.7 444.7C1269.7 444.7 1269.7 448.3 1269.7 448.3C1269.7 448.3 1271.3 448.3 1271.3 448.3C1271.3 448.3 1269.7 444.7 1269.7 444.7ZM1266.7 443.7C1266.7 443.7 1266.7 447.3 1266.7 447.3C1266.7 447.3 1268.3 447.3 1268.3 447.3C1268.3 445.1 1268.7 445 1266.7 443.7ZM1285.7 440.3C1285.7 440.3 1289.3 441.3 1289.3 441.3C1289.3 441.3 1290.3 438.7 1290.3 438.7C1287.8 438.7 1287.1 438.1 1285.7 440.3ZM1278.3 437.7C1276.2 440.1 1274.7 441.1 1274.7 444.3C1277.1 442.8 1277.4 440.3 1278.3 437.7ZM1266.3 432.7C1264 434.1 1264.7 435.7 1264.7 438.3C1264.7 438.3 1266.3 432.7 1266.3 432.7ZM1285.3 430.7C1281.6 430.7 1280.8 433.4 1278.7 436.3C1278.7 436.3 1279.7 435.3 1279.7 435.3C1279.7 435.3 1281.3 436.3 1281.3 436.3C1281.3 436.3 1280.3 434.7 1280.3 434.7C1282.8 434.2 1283.7 432.7 1285.3 430.7ZM1269.7 422.7C1269.7 422.7 1270.3 426.3 1270.3 426.3C1270.3 426.3 1271.3 423.7 1271.3 423.7C1271.3 423.7 1269.7 422.7 1269.7 422.7ZM1296.3 424.7C1293 424.7 1292.6 423.3 1290.7 420.7C1288.6 422.5 1284.7 424.4 1284.7 427.3C1289.5 427.3 1292.6 427.9 1296.3 424.7ZM1299.3 415.7C1299.3 415.7 1297.7 415.7 1297.7 415.7C1297.7 415.7 1297.7 417.3 1297.7 417.3C1297.7 417.3 1299.3 415.7 1299.3 415.7ZM1291.3 414.7C1285.4 417 1280 423.3 1278.7 429.3C1278.7 429.3 1280.3 429.3 1280.3 429.3C1280.3 425.5 1284.8 422.7 1287.3 421.3C1289.3 420.2 1289.8 418.2 1292.3 417.3C1292.3 417.3 1291.3 414.7 1291.3 414.7ZM1282.3 405.7C1279.5 410.3 1276.8 414 1275.7 419.3C1278.6 417.1 1278.4 415.9 1278.7 412.3C1280.8 412.3 1280.6 411.9 1281.7 410.3C1281.7 410.3 1283.7 412.3 1283.7 412.3C1283.7 412.3 1286.3 411.3 1286.3 411.3C1282.8 410.1 1283.1 409.2 1282.3 405.7ZM1288.3 397.7C1285.4 397.7 1283.2 401.6 1281.3 403.7C1281.3 403.7 1277.7 400.7 1277.7 400.7C1276 404.1 1274.7 406.4 1274.7 410.3C1274.7 410.3 1277.3 410.3 1277.3 410.3C1278.8 406.9 1280.1 404.9 1282.7 402.3C1282.7 402.3 1284.3 403.3 1284.3 403.3C1284.3 403.3 1283.3 401.7 1283.3 401.7C1285.8 401.2 1286.7 399.7 1288.3 397.7ZM1289.3 389.7C1289.3 389.7 1288.7 389.7 1288.7 389.7C1288.7 389.7 1288.7 390.3 1288.7 390.3C1288.7 390.3 1287.7 390.7 1287.7 390.7C1287.7 390.7 1287.7 391.3 1287.7 391.3C1287.7 391.3 1286.7 391.7 1286.7 391.7C1286.7 391.7 1286.7 392.3 1286.7 392.3C1286.7 392.3 1287.3 392.3 1287.3 392.3C1287.3 392.3 1287.3 391.7 1287.3 391.7C1287.3 391.7 1288.3 391.3 1288.3 391.3C1288.3 391.3 1288.3 390.7 1288.3 390.7C1288.3 390.7 1289.3 390.3 1289.3 390.3C1289.3 390.3 1289.3 389.7 1289.3 389.7ZM1271.7 384.7C1271.7 384.7 1271.7 388.3 1271.7 388.3C1271.7 388.3 1270.7 388.7 1270.7 388.7C1270.7 388.7 1270.7 397.3 1270.7 397.3C1272.3 393.8 1275.3 389.5 1275.3 385.7C1273.9 385 1273.4 384.7 1271.7 384.7ZM1266.3 384.7C1264.1 386.1 1264.7 386.8 1264.7 389.3C1264.7 389.3 1266.3 384.7 1266.3 384.7ZM1287.3 380.7C1284.1 380.7 1280.1 383.2 1277.7 381.7C1279 386.5 1275.6 390.2 1274.7 395.3C1278.5 393.9 1279.7 391.8 1281.3 388.7C1281.9 387.6 1283.7 387.4 1284.3 386.3C1285.2 384.6 1286.5 382.9 1287.3 380.7ZM1278.7 380.3C1278.7 380.3 1280.3 379.3 1280.3 379.3C1280.3 379.3 1281.3 380.3 1281.3 380.3C1281.3 380.3 1281.3 378.7 1281.3 378.7C1279.1 378.7 1280 378.2 1278.7 380.3Z"/><path id="plant_window_tall_foliage_right__p03602" fill="#3c345c" d="M1293.7 437.7C1293.7 437.7 1293.7 442.3 1293.7 442.3C1293.7 442.3 1294.3 442.3 1294.3 442.3C1294.3 442.3 1294.3 437.7 1294.3 437.7C1294.3 437.7 1293.7 437.7 1293.7 437.7Z"/><path id="plant_window_tall_foliage_right__p03603" fill="#343444" d="M1297.7 410.7C1297.7 410.7 1297.7 411.3 1297.7 411.3C1297.7 411.3 1303.3 411.3 1303.3 411.3C1303.3 411.3 1303.3 410.7 1303.3 410.7C1303.3 410.7 1297.7 410.7 1297.7 410.7ZM1302.3 398.7C1302.3 398.7 1301.7 398.7 1301.7 398.7C1301.7 398.7 1301.7 399.3 1301.7 399.3C1301.7 399.3 1300.7 399.7 1300.7 399.7C1300.7 399.7 1300.7 400.3 1300.7 400.3C1300.7 400.3 1299.7 400.7 1299.7 400.7C1299.7 400.7 1299.7 401.3 1299.7 401.3C1299.7 401.3 1300.3 401.3 1300.3 401.3C1300.3 401.3 1300.3 400.7 1300.3 400.7C1300.3 400.7 1301.3 400.3 1301.3 400.3C1301.3 400.3 1301.3 399.7 1301.3 399.7C1301.3 399.7 1302.3 399.3 1302.3 399.3C1302.3 399.3 1302.3 398.7 1302.3 398.7ZM1286.3 389.7C1286.3 389.7 1285.7 389.7 1285.7 389.7C1285.7 389.7 1285.7 390.3 1285.7 390.3C1285.7 390.3 1284.7 390.7 1284.7 390.7C1284.7 390.7 1284.7 391.3 1284.7 391.3C1284.7 391.3 1283.7 391.7 1283.7 391.7C1283.7 391.7 1283.7 392.3 1283.7 392.3C1283.7 392.3 1282.7 392.7 1282.7 392.7C1282.7 392.7 1282.7 393.3 1282.7 393.3C1282.7 393.3 1283.3 393.3 1283.3 393.3C1283.3 393.3 1283.3 392.7 1283.3 392.7C1283.3 392.7 1284.3 392.3 1284.3 392.3C1284.3 392.3 1284.3 391.7 1284.3 391.7C1284.3 391.7 1285.3 391.3 1285.3 391.3C1285.3 391.3 1285.3 390.7 1285.3 390.7C1285.3 390.7 1286.3 390.3 1286.3 390.3C1286.3 390.3 1286.3 389.7 1286.3 389.7Z"/><path id="plant_window_tall_foliage_right__p03605" fill="#00381b" d="M1272.7 449.7C1272.7 449.7 1273.3 453.3 1273.3 453.3C1273.3 453.3 1274.3 450.7 1274.3 450.7C1274.3 450.7 1272.7 449.7 1272.7 449.7ZM1268.3 447.7C1268.3 447.7 1266.7 447.7 1266.7 447.7C1266.7 447.7 1266.7 453.3 1266.7 453.3C1266.7 453.3 1268.3 447.7 1268.3 447.7ZM1289.3 436.7C1285.4 436.7 1284.3 440.7 1280.7 440.7C1280.7 443.4 1279.2 443.5 1278.7 445.7C1278.5 446.7 1279.5 449.3 1279.7 450.3C1279.7 450.3 1283.3 446.3 1283.3 446.3C1283.3 446.3 1282.7 445.7 1282.7 445.7C1282.7 445.7 1281.3 447.7 1281.3 447.7C1281.3 447.7 1280.3 447.3 1280.3 447.3C1280.3 447.3 1281.7 443.3 1281.7 443.3C1284.9 444 1285.9 444.7 1288.3 442.3C1288.3 442.3 1287.3 440.7 1287.3 440.7C1287.3 440.7 1283.7 441.7 1283.7 441.7C1282.7 436.9 1287.4 439.7 1289.3 436.7ZM1270.7 436.7C1270.7 436.7 1270.7 439.3 1270.7 439.3C1270.7 439.3 1271.3 439.3 1271.3 439.3C1271.3 439.3 1271.3 436.7 1271.3 436.7C1271.3 436.7 1270.7 436.7 1270.7 436.7ZM1286.3 429.7C1286.3 429.7 1283.7 429.7 1283.7 429.7C1283.7 429.7 1285.7 430.7 1285.7 430.7C1285.7 433 1284.3 433.7 1282.7 435.3C1285.1 433.3 1286.3 432.8 1286.3 429.7ZM1277.7 428.7C1277.7 428.7 1278.3 432.3 1278.3 432.3C1278.3 432.3 1279.3 429.7 1279.3 429.7C1279.3 429.7 1277.7 428.7 1277.7 428.7ZM1283.7 426.7C1283.7 426.7 1283.7 428.3 1283.7 428.3C1283.7 428.3 1290.3 428.3 1290.3 428.3C1290.3 428.3 1283.7 426.7 1283.7 426.7ZM1269.3 425.7C1269.3 425.7 1266.7 443.3 1266.7 443.3C1266.7 443.3 1267.7 438.3 1267.7 438.3C1267.7 438.3 1269.3 441.3 1269.3 441.3C1269.3 441.3 1269.3 432.7 1269.3 432.7C1269.3 432.7 1270.3 432.3 1270.3 432.3C1270.3 430 1271 427.4 1269.3 425.7ZM1286.3 421.7C1286.3 421.7 1285.7 421.7 1285.7 421.7C1285.7 421.7 1285.7 422.3 1285.7 422.3C1285.7 422.3 1284.7 422.7 1284.7 422.7C1284.7 422.7 1284.7 423.3 1284.7 423.3C1284.7 423.3 1283.7 423.7 1283.7 423.7C1283.7 423.7 1283.7 424.3 1283.7 424.3C1283.7 424.3 1284.3 424.3 1284.3 424.3C1284.3 424.3 1284.3 423.7 1284.3 423.7C1284.3 423.7 1285.3 423.3 1285.3 423.3C1285.3 423.3 1285.3 422.7 1285.3 422.7C1285.3 422.7 1286.3 422.3 1286.3 422.3C1286.3 422.3 1286.3 421.7 1286.3 421.7ZM1284.3 419.7C1284.3 419.7 1283.7 419.7 1283.7 419.7C1283.7 419.7 1283.7 420.3 1283.7 420.3C1283.7 420.3 1282.7 420.7 1282.7 420.7C1282.7 420.7 1282.7 421.3 1282.7 421.3C1282.7 421.3 1281.7 421.7 1281.7 421.7C1281.7 421.7 1281.7 422.3 1281.7 422.3C1281.7 422.3 1280.7 422.7 1280.7 422.7C1280.7 422.7 1280.7 423.3 1280.7 423.3C1280.7 423.3 1281.3 423.3 1281.3 423.3C1281.3 423.3 1281.3 422.7 1281.3 422.7C1281.3 422.7 1282.3 422.3 1282.3 422.3C1282.3 422.3 1282.3 421.7 1282.3 421.7C1282.3 421.7 1283.3 421.3 1283.3 421.3C1283.3 421.3 1283.3 420.7 1283.3 420.7C1283.3 420.7 1284.3 420.3 1284.3 420.3C1284.3 420.3 1284.3 419.7 1284.3 419.7ZM1294.7 416.7C1294.7 416.7 1294.7 417.3 1294.7 417.3C1294.7 417.3 1297.3 417.3 1297.3 417.3C1297.3 417.3 1297.3 416.7 1297.3 416.7C1297.3 416.7 1294.7 416.7 1294.7 416.7ZM1279.3 416.7C1279.3 416.7 1278.7 416.7 1278.7 416.7C1278.7 416.7 1278.7 417.3 1278.7 417.3C1278.7 417.3 1277.7 417.7 1277.7 417.7C1277.7 417.7 1277.7 418.3 1277.7 418.3C1277.7 418.3 1276.7 418.7 1276.7 418.7C1276.7 418.7 1276.7 419.3 1276.7 419.3C1276.7 419.3 1277.3 419.3 1277.3 419.3C1277.3 419.3 1277.3 418.7 1277.3 418.7C1277.3 418.7 1278.3 418.3 1278.3 418.3C1278.3 418.3 1278.3 417.7 1278.3 417.7C1278.3 417.7 1279.3 417.3 1279.3 417.3C1279.3 417.3 1279.3 416.7 1279.3 416.7ZM1264.7 408.7C1264.7 408.7 1264.7 410.3 1264.7 410.3C1264.7 410.3 1265.7 410.7 1265.7 410.7C1265.7 410.7 1265.7 412.3 1265.7 412.3C1265.7 412.3 1266.3 412.3 1266.3 412.3C1266.3 412.3 1266.3 410.7 1266.3 410.7C1266.3 410.7 1265.3 410.3 1265.3 410.3C1265.3 410.3 1265.3 408.7 1265.3 408.7C1265.3 408.7 1264.7 408.7 1264.7 408.7ZM1266.7 398.7C1266.7 398.7 1266.7 401.3 1266.7 401.3C1266.7 401.3 1267.3 401.3 1267.3 401.3C1267.3 401.3 1267.3 398.7 1267.3 398.7C1267.3 398.7 1266.7 398.7 1266.7 398.7ZM1264.7 398.7C1264.7 398.7 1264.7 407.3 1264.7 407.3C1264.7 407.3 1265.3 407.3 1265.3 407.3C1265.3 407.3 1265.3 398.7 1265.3 398.7C1265.3 398.7 1264.7 398.7 1264.7 398.7ZM1281.3 396.7C1281.3 396.7 1280.7 396.7 1280.7 396.7C1280.7 396.7 1280.7 397.3 1280.7 397.3C1280.7 397.3 1279.7 397.7 1279.7 397.7C1279.7 397.7 1279.7 398.3 1279.7 398.3C1279.7 398.3 1278.7 398.7 1278.7 398.7C1278.7 398.7 1278.7 399.3 1278.7 399.3C1278.7 399.3 1279.3 399.3 1279.3 399.3C1279.3 399.3 1279.3 398.7 1279.3 398.7C1279.3 398.7 1280.3 398.3 1280.3 398.3C1280.3 398.3 1280.3 397.7 1280.3 397.7C1280.3 397.7 1281.3 397.3 1281.3 397.3C1281.3 397.3 1281.3 396.7 1281.3 396.7ZM1307.3 390.7C1307.3 390.7 1306.7 390.7 1306.7 390.7C1306.7 390.7 1306.7 391.3 1306.7 391.3C1306.7 391.3 1305.7 391.7 1305.7 391.7C1305.7 391.7 1305.7 392.3 1305.7 392.3C1305.7 392.3 1304.7 392.7 1304.7 392.7C1304.7 392.7 1304.7 393.3 1304.7 393.3C1304.7 393.3 1305.3 393.3 1305.3 393.3C1305.3 393.3 1305.3 392.7 1305.3 392.7C1305.3 392.7 1306.3 392.3 1306.3 392.3C1306.3 392.3 1306.3 391.7 1306.3 391.7C1306.3 391.7 1307.3 391.3 1307.3 391.3C1307.3 391.3 1307.3 390.7 1307.3 390.7ZM1280.3 379.7C1280.3 379.7 1276.7 383.7 1276.7 383.7C1276.7 383.7 1277.7 385.3 1277.7 385.3C1277.7 385.3 1280.3 379.7 1280.3 379.7ZM1264.7 378.7C1264.7 378.7 1264.7 385.3 1264.7 385.3C1264.7 385.3 1265.3 385.3 1265.3 385.3C1265.3 385.3 1265.3 378.7 1265.3 378.7C1265.3 378.7 1264.7 378.7 1264.7 378.7Z"/><path id="plant_window_tall_foliage_right__p03606" fill="#231f3e" d="M1292.7 437.7C1292.7 437.7 1292.7 441.3 1292.7 441.3C1292.7 441.3 1293.3 441.3 1293.3 441.3C1293.3 441.3 1293.3 437.7 1293.3 437.7C1293.3 437.7 1292.7 437.7 1292.7 437.7Z"/><path id="plant_window_tall_foliage_right__p03607" fill="#052214" d="M1275.7 456.7C1275.7 456.7 1275.7 457.3 1275.7 457.3C1275.7 457.3 1280.3 457.3 1280.3 457.3C1280.3 457.3 1280.3 456.7 1280.3 456.7C1280.3 456.7 1275.7 456.7 1275.7 456.7ZM1275.7 453.7C1275.7 453.7 1275.7 455.3 1275.7 455.3C1275.7 455.3 1277.3 455.3 1277.3 455.3C1277.3 455.3 1275.7 453.7 1275.7 453.7ZM1271.3 448.7C1269.3 450 1269.7 450.1 1269.7 452.3C1271.7 451 1271.3 450.9 1271.3 448.7ZM1281.7 443.7C1281.7 443.7 1280.7 447.3 1280.7 447.3C1280.7 447.3 1281.7 446.3 1281.7 446.3C1281.7 446.3 1283.3 447.3 1283.3 447.3C1283.3 447.3 1285.3 444.7 1285.3 444.7C1285.3 444.7 1281.7 443.7 1281.7 443.7ZM1282.3 445.7C1282.3 445.7 1283.3 445.3 1283.3 445.3C1283.3 445.3 1283.7 446.3 1283.7 446.3C1283.7 446.3 1282.7 446.7 1282.7 446.7C1282.7 446.7 1282.3 445.7 1282.3 445.7ZM1268.7 441.7C1268.7 441.7 1268.7 443.3 1268.7 443.3C1268.7 443.3 1270.3 443.3 1270.3 443.3C1270.3 443.3 1268.7 441.7 1268.7 441.7ZM1285.3 431.7C1282.4 434.1 1281.2 435.8 1279.7 439.3C1279.7 439.3 1285.3 431.7 1285.3 431.7ZM1276.7 430.7C1276.7 430.7 1275.7 437.3 1275.7 437.3C1275.7 437.3 1277.3 438.3 1277.3 438.3C1277.3 438.3 1278.3 436.7 1278.3 436.7C1278.3 436.7 1276.7 437.7 1276.7 437.7C1276.2 435 1277.7 433.9 1279.3 431.7C1279.3 431.7 1277.7 432.7 1277.7 432.7C1277.7 432.7 1276.7 430.7 1276.7 430.7ZM1283.3 429.7C1283.3 429.7 1282.7 429.7 1282.7 429.7C1282.7 429.7 1282.7 430.3 1282.7 430.3C1282.7 430.3 1281.7 430.7 1281.7 430.7C1281.7 430.7 1281.7 431.3 1281.7 431.3C1281.7 431.3 1280.7 431.7 1280.7 431.7C1280.7 431.7 1280.7 432.3 1280.7 432.3C1280.7 432.3 1281.3 432.3 1281.3 432.3C1281.3 432.3 1281.3 431.7 1281.3 431.7C1281.3 431.7 1282.3 431.3 1282.3 431.3C1282.3 431.3 1282.3 430.7 1282.3 430.7C1282.3 430.7 1283.3 430.3 1283.3 430.3C1283.3 430.3 1283.3 429.7 1283.3 429.7ZM1317.3 422.3C1317.3 422.3 1316.3 419.7 1316.3 419.7C1316.3 419.7 1315.3 421.7 1315.3 421.7C1315.3 421.7 1308.7 420.7 1308.7 420.7C1310.6 421.2 1313.9 421.4 1314.7 423.3C1314.7 423.3 1317.3 422.3 1317.3 422.3ZM1303.7 419.7C1303.7 419.7 1303.7 420.3 1303.7 420.3C1303.7 420.3 1307.3 420.3 1307.3 420.3C1307.3 420.3 1307.3 419.7 1307.3 419.7C1307.3 419.7 1303.7 419.7 1303.7 419.7ZM1291.7 419.3C1291.7 419.3 1294.3 417.7 1294.3 417.7C1294.3 417.7 1291.7 417.7 1291.7 417.7C1291.7 417.7 1291.7 419.3 1291.7 419.3ZM1284.3 412.7C1284.3 412.7 1280.7 416.3 1280.7 416.3C1280.7 416.3 1281.7 415.3 1281.7 415.3C1281.7 415.3 1283.3 416.3 1283.3 416.3C1283.3 416.3 1282.3 414.7 1282.3 414.7C1282.3 414.7 1284.3 412.7 1284.3 412.7ZM1298.7 411.7C1298.7 411.7 1298.7 412.3 1298.7 412.3C1298.7 412.3 1304.3 412.3 1304.3 412.3C1304.3 412.3 1304.3 411.7 1304.3 411.7C1304.3 411.7 1298.7 411.7 1298.7 411.7ZM1279.3 409.7C1279.3 409.7 1277.7 409.7 1277.7 409.7C1277.7 412.9 1274.7 413.9 1274.7 417.3C1274.7 417.3 1273.7 417.7 1273.7 417.7C1273.7 417.7 1274.7 420.3 1274.7 420.3C1274.7 420.3 1276.3 420.3 1276.3 420.3C1275 415.7 1277 413.7 1279.3 409.7ZM1275.3 405.7C1273.3 407 1273.7 407.1 1273.7 409.3C1273.7 409.3 1275.3 405.7 1275.3 405.7ZM1283.3 402.7C1283.3 402.7 1280.7 405.3 1280.7 405.3C1280.7 405.3 1282.3 405.3 1282.3 405.3C1282.3 405.3 1283.3 402.7 1283.3 402.7ZM1266.7 402.7C1266.7 402.7 1266.7 412.3 1266.7 412.3C1266.7 412.3 1265.7 412.7 1265.7 412.7C1265.7 412.7 1264.7 410.7 1264.7 410.7C1264.7 410.7 1264.7 413.3 1264.7 413.3C1264.7 413.3 1265.7 413.7 1265.7 413.7C1265.7 418.6 1265.9 420.6 1268.7 424.7C1266.9 426.5 1267.7 429.9 1267.7 432.3C1267.7 432.3 1266.7 432.7 1266.7 432.7C1266.7 432.7 1268.3 433.3 1268.3 433.3C1268.3 433.3 1268.3 425.7 1268.3 425.7C1268.3 425.7 1269.3 425.3 1269.3 425.3C1269.3 423.3 1268.9 422.1 1270.3 420.7C1267.1 417.1 1265.5 412.5 1269.3 408.7C1269.3 408.7 1267.3 409.3 1267.3 409.3C1267.3 409.3 1266.7 402.7 1266.7 402.7ZM1301.3 397.7C1301.3 397.7 1300.7 397.7 1300.7 397.7C1300.7 397.7 1300.7 398.3 1300.7 398.3C1300.7 398.3 1299.7 398.7 1299.7 398.7C1299.7 398.7 1299.7 399.3 1299.7 399.3C1299.7 399.3 1298.7 399.7 1298.7 399.7C1298.7 399.7 1298.7 400.3 1298.7 400.3C1298.7 400.3 1299.3 400.3 1299.3 400.3C1299.3 400.3 1299.3 399.7 1299.3 399.7C1299.3 399.7 1300.3 399.3 1300.3 399.3C1300.3 399.3 1300.3 398.7 1300.3 398.7C1300.3 398.7 1301.3 398.3 1301.3 398.3C1301.3 398.3 1301.3 397.7 1301.3 397.7ZM1285.3 392.7C1285.3 392.7 1280.7 396.3 1280.7 396.3C1283.1 396.3 1283.8 394.5 1285.3 392.7ZM1264.7 392.7C1264.7 392.7 1264.7 398.3 1264.7 398.3C1264.7 398.3 1265.3 398.3 1265.3 398.3C1265.3 398.3 1265.3 392.7 1265.3 392.7C1265.3 392.7 1264.7 392.7 1264.7 392.7ZM1265.7 387.7C1265.7 387.7 1265.7 390.3 1265.7 390.3C1265.7 390.3 1266.3 390.3 1266.3 390.3C1266.3 390.3 1266.3 387.7 1266.3 387.7C1266.3 387.7 1265.7 387.7 1265.7 387.7ZM1268.7 385.7C1268.7 385.7 1267.7 388.3 1267.7 388.3C1270.5 390.3 1270 393 1270.3 396.3C1270.3 393 1269.8 389.7 1271.3 386.7C1271.3 386.7 1268.7 385.7 1268.7 385.7ZM1268.7 386.3C1268.7 386.3 1269.7 386.7 1269.7 386.7C1269.7 386.7 1269.3 388.7 1269.3 388.7C1269.3 388.7 1268.3 388.3 1268.3 388.3C1268.3 388.3 1268.7 386.3 1268.7 386.3ZM1277.3 384.7C1274.3 389.7 1273.7 395.3 1269.7 399.3C1271.6 397.4 1272.7 397 1275.3 396.3C1275.3 396.3 1273.7 396.7 1273.7 396.7C1273.7 396.7 1273.3 394.7 1273.3 394.7C1273.3 394.7 1274.3 394.3 1274.3 394.3C1274.3 390.9 1276.5 388.2 1277.3 384.7ZM1270.3 371.7C1270.3 371.7 1268.7 371.7 1268.7 371.7C1268.7 371.7 1268.7 374.3 1268.7 374.3C1268.7 374.3 1270.3 371.7 1270.3 371.7Z"/><path id="plant_window_tall_foliage_right__p03609" fill="#060e12" d="M1264.7 456.7C1264.7 456.7 1264.7 457.3 1264.7 457.3C1264.7 457.3 1275.3 457.3 1275.3 457.3C1275.3 457.3 1275.3 456.7 1275.3 456.7C1275.3 456.7 1264.7 456.7 1264.7 456.7ZM1268.7 443.7C1268.7 443.7 1268.7 446.3 1268.7 446.3C1268.7 446.3 1269.3 446.3 1269.3 446.3C1269.3 446.3 1269.3 443.7 1269.3 443.7C1269.3 443.7 1268.7 443.7 1268.7 443.7ZM1266.3 440.7C1263.8 442.2 1264.7 444.6 1264.7 447.3C1264.7 447.3 1266.3 447.3 1266.3 447.3C1266.3 447.3 1266.3 440.7 1266.3 440.7ZM1280.3 439.7C1278.6 441.9 1279 444.1 1277.7 446.3C1277.3 447 1276.1 447 1275.7 447.7C1274.4 450.3 1275.6 452.4 1273.3 454.7C1273.3 454.7 1272.3 454.3 1272.3 454.3C1272.3 454.3 1272.7 444.7 1272.7 444.7C1270.1 447.3 1273.1 450.3 1269.7 452.7C1269.7 452.7 1268.7 449.7 1268.7 449.7C1268.1 452.5 1268.3 454 1265.7 455.3C1268 455.3 1272.1 456.1 1274.3 455.3C1276.7 454.4 1275.8 452.4 1276.3 450.7C1277.5 446.4 1280.3 444.4 1280.3 439.7ZM1289.7 437.7C1289.7 437.7 1291.7 438.7 1291.7 438.7C1291.7 441 1290.5 441.1 1288.7 442.3C1288.7 442.3 1291.3 442.3 1291.3 442.3C1291.3 442.3 1292.3 444.3 1292.3 444.3C1292.3 444.3 1292.3 437.7 1292.3 437.7C1292.3 437.7 1289.7 437.7 1289.7 437.7ZM1267.3 433.7C1265 435.1 1265.7 436.7 1265.7 439.3C1267.3 437.3 1267.3 436.4 1267.3 433.7ZM1279.3 425.7C1279.3 425.7 1277.7 425.7 1277.7 425.7C1277.7 425.7 1276.7 430.3 1276.7 430.3C1276.7 430.3 1279.3 425.7 1279.3 425.7ZM1291.3 418.7C1289 418.7 1287.7 420 1287.7 422.3C1281.4 423.6 1278.8 432.5 1276.3 437.7C1276.3 437.7 1274.7 435.7 1274.7 435.7C1274.7 435.7 1274.7 441.3 1274.7 441.3C1277.2 437.6 1282.8 424.8 1288.3 430.3C1289 428.6 1291.6 428.7 1293.3 428.3C1293.3 428.3 1283.3 428.3 1283.3 428.3C1283.3 424.9 1288.9 421.1 1291.3 418.7ZM1274.3 418.7C1272.5 422.7 1270.7 425.9 1270.7 430.3C1272 427.5 1272.9 426.2 1275.3 424.3C1275.3 424.3 1274.3 418.7 1274.3 418.7ZM1288.3 415.7C1286.1 415.7 1286 416.6 1284.7 418.3C1286.9 418.3 1287 417.4 1288.3 415.7ZM1310.7 414.7C1310.7 414.7 1315.3 419.3 1315.3 419.3C1314.4 416.9 1313.6 414.7 1310.7 414.7ZM1271.3 414.7C1271.3 414.7 1267.7 416.7 1267.7 416.7C1267.7 416.7 1269.7 420.3 1269.7 420.3C1269.7 420.3 1271.3 414.7 1271.3 414.7ZM1264.7 413.7C1264.7 413.7 1264.7 418.3 1264.7 418.3C1264.7 418.3 1265.3 418.3 1265.3 418.3C1265.3 418.3 1265.3 413.7 1265.3 413.7C1265.3 413.7 1264.7 413.7 1264.7 413.7ZM1304.7 411.7C1304.7 411.7 1304.7 412.3 1304.7 412.3C1304.7 412.3 1306.3 412.3 1306.3 412.3C1306.3 412.3 1306.7 413.3 1306.7 413.3C1306.7 413.3 1308.3 413.3 1308.3 413.3C1308.3 413.3 1308.3 412.7 1308.3 412.7C1308.3 412.7 1306.7 412.7 1306.7 412.7C1306.7 412.7 1306.3 411.7 1306.3 411.7C1306.3 411.7 1304.7 411.7 1304.7 411.7ZM1293.7 413.3C1293.7 413.3 1298.3 411.7 1298.3 411.7C1295.8 411.7 1295.1 411.1 1293.7 413.3ZM1281.3 405.7C1279.6 407 1278.7 407.1 1278.7 409.3C1278.7 409.3 1281.3 405.7 1281.3 405.7ZM1298.3 402.7C1295 402.7 1292.8 406.5 1291.7 409.3C1291.7 409.3 1298.3 402.7 1298.3 402.7ZM1274.3 398.7C1272.3 396.7 1271.6 397.9 1270.3 399.7C1270.3 399.7 1268.7 398.7 1268.7 398.7C1268.7 398.7 1266.7 402.3 1266.7 402.3C1266.7 402.3 1268.7 400.3 1268.7 400.3C1268.7 400.3 1270.3 401.3 1270.3 401.3C1270.3 401.3 1270.7 399.3 1270.7 399.3C1270.7 399.3 1273.3 400.3 1273.3 400.3C1273.3 400.3 1274.3 398.7 1274.3 398.7ZM1277.7 396.7C1277.7 396.7 1277.7 398.3 1277.7 398.3C1277.7 398.3 1279.3 398.3 1279.3 398.3C1279.3 398.3 1277.7 396.7 1277.7 396.7ZM1281.3 390.7C1279.2 392 1279.7 391.1 1279.7 393.3C1279.7 393.3 1281.3 390.7 1281.3 390.7ZM1314.3 386.7C1311.2 387.9 1308.6 389.8 1306.7 392.3C1306.7 392.3 1314.3 386.7 1314.3 386.7ZM1312.7 383.7C1314.9 384.2 1315.3 384.3 1316.3 386.3C1316.3 386.3 1315.3 383.7 1315.3 383.7C1315.3 383.7 1312.7 383.7 1312.7 383.7ZM1297.7 385.3C1297.7 385.3 1301.3 383.7 1301.3 383.7C1299.1 383.7 1299 383.3 1297.7 385.3ZM1303.7 382.7C1303.7 382.7 1303.7 383.3 1303.7 383.3C1303.7 383.3 1311.3 383.3 1311.3 383.3C1311.3 383.3 1311.3 382.7 1311.3 382.7C1311.3 382.7 1303.7 382.7 1303.7 382.7ZM1268.3 382.7C1266.8 385.5 1266.7 387.2 1266.7 390.3C1266.7 390.3 1264.7 390.7 1264.7 390.7C1264.7 390.7 1264.7 392.3 1264.7 392.3C1264.7 392.3 1268.3 391.3 1268.3 391.3C1267.7 388.7 1266.7 387.3 1268.7 385.3C1268.7 385.3 1271.3 386.3 1271.3 386.3C1271.3 386.3 1271.3 384.7 1271.3 384.7C1271.3 384.7 1268.7 384.7 1268.7 384.7C1268.7 384.7 1268.3 382.7 1268.3 382.7ZM1274.3 371.7C1274.3 371.7 1269.7 372.7 1269.7 372.7C1269.7 372.7 1268.7 376.3 1268.7 376.3C1269.4 375.3 1269.7 374 1270.7 373.3C1272.8 371.9 1272.4 374.7 1274.3 371.7Z"/><path id="plant_window_tall_foliage_right__p03610" fill="#000405" d="M1280.3 451.7C1278.2 453 1278.7 452.1 1278.7 454.3C1278.7 454.3 1280.3 451.7 1280.3 451.7ZM1264.7 447.7C1264.7 447.7 1264.7 456.3 1264.7 456.3C1264.7 456.3 1281.3 456.3 1281.3 456.3C1281.3 456.3 1275.7 455.7 1275.7 455.7C1275.7 455.7 1275.3 454.7 1275.3 454.7C1273.3 456.7 1268.5 455.7 1265.7 455.7C1265.7 455.7 1266.3 447.7 1266.3 447.7C1266.3 447.7 1264.7 447.7 1264.7 447.7ZM1268.7 446.7C1268.7 446.7 1268.7 449.3 1268.7 449.3C1268.7 449.3 1269.3 449.3 1269.3 449.3C1269.3 449.3 1269.3 446.7 1269.3 446.7C1269.3 446.7 1268.7 446.7 1268.7 446.7ZM1288.3 442.7C1288.3 442.7 1287.7 442.7 1287.7 442.7C1287.7 442.7 1287.7 443.3 1287.7 443.3C1287.7 443.3 1286.7 443.7 1286.7 443.7C1286.7 443.7 1286.7 444.3 1286.7 444.3C1286.7 444.3 1285.7 444.7 1285.7 444.7C1285.7 444.7 1285.7 445.3 1285.7 445.3C1285.7 445.3 1284.7 445.7 1284.7 445.7C1284.7 445.7 1284.7 446.3 1284.7 446.3C1284.7 446.3 1283.7 446.7 1283.7 446.7C1283.7 446.7 1283.7 447.3 1283.7 447.3C1283.7 447.3 1282.7 447.7 1282.7 447.7C1282.7 447.7 1282.7 448.3 1282.7 448.3C1282.7 448.3 1281.7 448.7 1281.7 448.7C1281.7 448.7 1281.7 449.3 1281.7 449.3C1281.7 449.3 1282.3 449.3 1282.3 449.3C1282.3 449.3 1282.3 448.7 1282.3 448.7C1282.3 448.7 1283.3 448.3 1283.3 448.3C1283.3 448.3 1283.3 447.7 1283.3 447.7C1283.3 447.7 1284.3 447.3 1284.3 447.3C1284.3 447.3 1284.3 446.7 1284.3 446.7C1284.3 446.7 1285.3 446.3 1285.3 446.3C1285.3 446.3 1285.3 445.7 1285.3 445.7C1285.3 445.7 1286.3 445.3 1286.3 445.3C1286.3 445.3 1286.3 444.7 1286.3 444.7C1286.3 444.7 1287.3 444.3 1287.3 444.3C1287.3 444.3 1287.3 443.7 1287.3 443.7C1287.3 443.7 1288.3 443.3 1288.3 443.3C1288.3 443.3 1288.3 442.7 1288.3 442.7ZM1276.3 430.7C1273.9 435.3 1273.3 439.1 1272.7 444.3C1276 442.2 1273.3 438.9 1274.3 435.7C1275 433.4 1276.3 433.4 1276.3 430.7ZM1275.3 424.7C1269.6 429.1 1270.3 435.6 1269.7 442.3C1269.7 442.3 1270.3 434.7 1270.3 434.7C1272.5 433.8 1271.5 430.6 1272.3 428.7C1272.9 427.4 1274.4 425.9 1275.3 424.7ZM1303.3 420.7C1303.3 420.7 1302.7 420.7 1302.7 420.7C1302.7 420.7 1302.7 421.3 1302.7 421.3C1302.7 421.3 1301.7 421.7 1301.7 421.7C1301.7 421.7 1301.7 422.3 1301.7 422.3C1301.7 422.3 1300.7 422.7 1300.7 422.7C1300.7 422.7 1300.7 423.3 1300.7 423.3C1300.7 423.3 1301.3 423.3 1301.3 423.3C1301.3 423.3 1301.3 422.7 1301.3 422.7C1301.3 422.7 1302.3 422.3 1302.3 422.3C1302.3 422.3 1302.3 421.7 1302.3 421.7C1302.3 421.7 1303.3 421.3 1303.3 421.3C1303.3 421.3 1303.3 420.7 1303.3 420.7ZM1269.3 409.7C1267.5 412 1267.7 413.4 1267.7 416.3C1267.7 416.3 1270.3 415.3 1270.3 415.3C1268.8 413.8 1269.3 411.8 1269.3 409.7ZM1291.3 408.7C1289 410.5 1287 411.6 1284.7 412.7C1283.3 413.4 1282.7 416 1281.3 416.7C1278.3 418.2 1275.7 419.2 1275.7 423.3C1275.7 423.3 1278.3 423.3 1278.3 423.3C1278.3 423.3 1279.3 425.3 1279.3 425.3C1280.3 422.8 1281.2 422 1283.3 420.3C1278.3 415.3 1289.1 411.5 1291.3 408.7ZM1269.7 405.7C1269.7 405.7 1269.7 408.3 1269.7 408.3C1269.7 408.3 1270.3 408.3 1270.3 408.3C1270.3 408.3 1270.3 405.7 1270.3 405.7C1270.3 405.7 1269.7 405.7 1269.7 405.7ZM1272.3 399.7C1272.3 399.7 1270.7 399.7 1270.7 399.7C1270.7 399.7 1270.7 404.3 1270.7 404.3C1270.7 404.3 1272.3 399.7 1272.3 399.7ZM1303.3 395.7C1303.3 395.7 1297.7 402.3 1297.7 402.3C1299.8 400.5 1303.3 398.5 1303.3 395.7ZM1279.3 393.7C1279.3 393.7 1273.7 398.3 1273.7 398.3C1275.4 396.6 1275.8 396.3 1278.3 396.3C1278.3 396.3 1279.3 393.7 1279.3 393.7ZM1269.3 389.7C1269.3 389.7 1268.3 391.7 1268.3 391.7C1268.3 391.7 1266.7 391.7 1266.7 391.7C1268.5 393.5 1267.7 396.9 1267.7 399.3C1270.4 397.6 1269.3 392.8 1269.3 389.7ZM1290.3 387.7C1286.5 389.1 1284.4 392.3 1281.7 395.3C1281.7 395.3 1290.3 387.7 1290.3 387.7ZM1286.3 384.7C1286.3 384.7 1285.7 384.7 1285.7 384.7C1285.7 384.7 1285.7 385.3 1285.7 385.3C1285.7 385.3 1284.7 385.7 1284.7 385.7C1284.7 385.7 1284.7 386.3 1284.7 386.3C1284.7 386.3 1283.7 386.7 1283.7 386.7C1283.7 386.7 1283.7 387.3 1283.7 387.3C1283.7 387.3 1284.3 387.3 1284.3 387.3C1284.3 387.3 1284.3 386.7 1284.3 386.7C1284.3 386.7 1285.3 386.3 1285.3 386.3C1285.3 386.3 1285.3 385.7 1285.3 385.7C1285.3 385.7 1286.3 385.3 1286.3 385.3C1286.3 385.3 1286.3 384.7 1286.3 384.7ZM1291.3 376.7C1291.3 376.7 1290.7 376.7 1290.7 376.7C1290.7 376.7 1290.7 377.3 1290.7 377.3C1290.7 377.3 1289.7 377.7 1289.7 377.7C1289.7 377.7 1289.7 379.3 1289.7 379.3C1289.7 379.3 1288.7 379.7 1288.7 379.7C1288.7 379.7 1288.7 380.3 1288.7 380.3C1288.7 380.3 1289.3 380.3 1289.3 380.3C1289.3 380.3 1289.3 379.7 1289.3 379.7C1289.3 379.7 1290.3 379.3 1290.3 379.3C1290.3 379.3 1290.3 377.7 1290.3 377.7C1290.3 377.7 1291.3 377.3 1291.3 377.3C1291.3 377.3 1291.3 376.7 1291.3 376.7ZM1274.3 372.7C1267.9 374.5 1268.7 378.4 1268.7 384.3C1268.7 384.3 1272.3 383.3 1272.3 383.3C1272.3 378.7 1275.6 377.5 1274.3 372.7ZM1294.3 371.7C1294.3 371.7 1293.7 371.7 1293.7 371.7C1293.7 371.7 1293.7 372.3 1293.7 372.3C1293.7 372.3 1292.7 372.7 1292.7 372.7C1292.7 372.7 1292.7 374.3 1292.7 374.3C1292.7 374.3 1291.7 374.7 1291.7 374.7C1291.7 374.7 1291.7 375.3 1291.7 375.3C1291.7 375.3 1292.3 375.3 1292.3 375.3C1292.3 375.3 1292.3 374.7 1292.3 374.7C1292.3 374.7 1293.3 374.3 1293.3 374.3C1293.3 374.3 1293.3 372.7 1293.3 372.7C1293.3 372.7 1294.3 372.3 1294.3 372.3C1294.3 372.3 1294.3 371.7 1294.3 371.7Z"/></g></svg>